<svg width="435" height="338" viewBox="0 0 435 338" fill="none" xmlns="http://www.w3.org/2000/svg">
<g opacity="0.15" clip-path="url(#clip0_1_1314)">
<circle cx="5.05859" cy="-92.0664" r="528" stroke="white" stroke-width="5"/>
<path d="M449.965 -92.0672C449.965 153.644 250.551 352.836 4.55472 352.836C-241.441 352.836 -440.855 153.644 -440.855 -92.0672C-440.855 -337.778 -241.441 -536.971 4.55472 -536.971C250.551 -536.971 449.965 -337.778 449.965 -92.0672Z" stroke="white" stroke-width="5"/>
<path d="M378.01 -92.0657C378.01 114.474 210.802 281.902 4.54874 281.902C-201.705 281.902 -368.912 114.474 -368.912 -92.0657C-368.912 -298.605 -201.705 -466.033 4.54874 -466.033C210.802 -466.033 378.01 -298.605 378.01 -92.0657Z" stroke="white" stroke-width="5"/>
<circle cx="5.05847" cy="-91.0548" r="317.219" stroke="white" stroke-width="5"/>
</g>
<defs>
<clipPath id="clip0_1_1314">
<rect width="959.542" height="960.094" fill="white" transform="translate(-525.441 -622.566)"/>
</clipPath>
</defs>
</svg>
