<svg width="440" height="393" viewBox="0 0 440 393" fill="none" xmlns="http://www.w3.org/2000/svg">
<path d="M426.616 284.427C419.431 268.084 405.631 254.445 389.056 247.734C371.791 240.743 351.966 243.286 333.781 240.946C317.986 238.91 306.592 231.859 297.159 219.323C288.123 207.312 280.023 194.009 265.248 188.452C253.574 184.064 240.301 185.28 228.698 189.856C207.319 198.284 191.171 216.207 177.571 234.065C165.154 250.369 155.026 268.221 132.059 268.802C121.666 269.068 111.497 266.531 101.336 263.994C89.0298 260.92 76.7334 257.846 64.059 259.751C33.4764 264.342 8.00719 289.802 2.6702 320.109C-2.3317 348.514 10.2199 376.067 31.7828 392.255H402.415C429.585 363.429 443.845 323.612 426.616 284.427Z" fill="#F7F0E3"/>
<path d="M91.5713 392.255H92.5909C99.6716 384.471 105.218 375.026 108.744 364.544C114.451 347.578 114.21 329.771 108.067 314.406C104.962 306.643 100.478 299.405 96.1424 292.405C91.7448 285.309 87.1982 277.97 84.112 270.102C82.836 266.853 81.8937 263.359 81.3266 259.796C81.0711 259.763 80.8154 259.736 80.5596 259.707C81.1296 263.394 82.0985 267.011 83.4186 270.376C86.5289 278.303 91.0937 285.673 95.5089 292.798C99.8278 299.771 104.294 306.98 107.375 314.683C113.453 329.885 113.688 347.51 108.038 364.309C104.468 374.919 98.8053 384.453 91.5713 392.255Z" fill="white"/>
<path d="M400.622 359.929C408.26 361.557 415.618 363.018 422.737 363.936C422.859 363.701 422.975 363.462 423.098 363.227C415.922 362.314 408.493 360.845 400.78 359.202C389.034 356.698 376.319 353.991 363.712 353.991C355.904 353.991 348.138 355.028 340.667 357.798C337.835 358.847 335.107 360.177 332.51 361.763C325.764 358.886 318.981 355.747 312.265 352.303C317.139 348.631 322.064 345.032 327.046 341.556C364.004 315.748 398.115 301.116 431.069 296.963C431.004 296.721 430.935 296.48 430.867 296.239C397.823 300.424 363.64 315.095 326.616 340.945C321.533 344.496 316.504 348.171 311.528 351.922C303.971 348.019 296.509 343.729 289.282 338.995C276.18 330.409 260.591 318.154 246.979 301.87C299.732 295.949 353.438 288.493 397.298 259.182C398.962 258.067 400.807 256.755 402.718 255.268C402.506 255.115 402.295 254.969 402.08 254.82C400.25 256.239 398.482 257.492 396.884 258.562C353.036 287.867 299.228 295.267 246.409 301.184C236.789 289.549 228.194 275.88 222.22 260.058C212.917 235.413 213.408 211.229 223.57 193.705C224.011 192.945 224.476 192.194 224.956 191.451C224.533 191.648 224.113 191.851 223.692 192.051C223.43 192.474 223.174 192.9 222.923 193.33C212.651 211.05 212.14 235.466 221.522 260.324C227.464 276.059 235.981 289.671 245.524 301.28C242.465 301.623 239.406 301.962 236.36 302.296C225.359 303.51 213.985 304.768 202.941 306.19C198.909 306.709 194.81 307.314 190.73 308.071C181.986 289.614 172.38 271.611 159.963 256.168C159.786 256.347 159.605 256.517 159.425 256.693C171.736 272.016 181.282 289.889 189.973 308.214C172.181 311.607 154.904 317.987 145.68 332.833C137.065 346.699 137.073 365.865 145.703 389.798C146.001 390.627 146.309 391.444 146.621 392.255H147.419C147.077 391.366 146.738 390.472 146.404 389.545C137.855 365.838 137.824 346.89 146.313 333.227C155.428 318.556 172.61 312.263 190.303 308.909C193.39 315.441 196.372 322.023 199.336 328.567L199.659 329.279C209.952 352.002 220.598 373.929 234.538 392.255H235.468C221.4 373.896 210.695 351.835 200.338 328.972L200.015 328.26C197.077 321.773 194.119 315.244 191.06 308.769C195.061 308.029 199.081 307.436 203.036 306.929C214.073 305.507 225.442 304.252 236.44 303.039C239.651 302.684 242.871 302.329 246.09 301.968C259.834 318.508 275.619 330.934 288.874 339.618C296.02 344.302 303.401 348.55 310.869 352.423C298.19 362.01 285.857 372.099 273.819 381.952C269.648 385.362 265.43 388.809 261.178 392.255H262.362C266.372 388.999 270.352 385.747 274.29 382.527C286.414 372.609 298.834 362.446 311.603 352.801C318.284 356.239 325.027 359.372 331.738 362.243C322.559 368.08 315.076 377.122 310.553 388.099C309.987 389.473 309.492 390.86 309.033 392.255H309.82C310.252 390.955 310.714 389.664 311.242 388.382C315.779 377.376 323.322 368.342 332.573 362.598C351.331 370.566 369.764 376.481 385.606 381.168L386.202 381.344C392.877 383.32 399.704 385.341 405.744 388.591C405.911 388.397 406.081 388.206 406.248 388.013C400.112 384.683 393.184 382.631 386.411 380.631L385.814 380.455C370.136 375.813 351.915 369.97 333.357 362.121C335.775 360.684 338.306 359.467 340.926 358.495C360.262 351.332 381.706 355.899 400.622 359.929Z" fill="white"/>
<path d="M33.6509 311.654C36.9431 325.126 35.4742 339.678 29.6212 351.579C25.7876 359.372 20.2515 366.425 13.4325 372.486C13.5681 372.698 13.7068 372.907 13.8445 373.115C20.7741 366.977 26.3987 359.819 30.2901 351.907C36.2192 339.854 37.708 325.117 34.3747 311.475C31.7709 300.817 26.5359 291.79 19.3028 285.258C19.1415 285.446 18.9815 285.637 18.8223 285.828C25.9346 292.261 31.0852 301.151 33.6509 311.654Z" fill="white"/>
<path d="M202.334 140.961C208.828 147.594 211.738 158.771 208.157 169.077C204.691 179.055 197.093 187.319 187.963 192.634C180.618 196.909 171.036 199.268 163.812 194.79C158.413 191.445 155.614 184.88 155.458 178.533C155.303 172.183 157.438 165.994 160.076 160.22C163.796 152.075 168.803 144.181 176.261 139.229C186.542 132.402 196.093 134.581 202.334 140.961Z" fill="#F7F0E3"/>
<path d="M63.625 23.5158H115.153V1.732H63.625V23.5158ZM116.271 24.6338H62.5071V0.614037H116.271V24.6338Z" fill="#E9DDCA"/>
<path d="M28.6485 46.4831H80.176V24.7023H28.6485V46.4831ZM81.294 47.6011H27.5305V23.5843H81.294V47.6011Z" fill="#E9DDCA"/>
<path d="M422.175 73.1948C418.693 61.6187 412.569 50.9907 403.804 41.2749C395.022 31.5591 383.043 23.5366 367.869 17.1925C352.694 10.8484 333.415 7.67645 310.027 7.67645C291.373 7.67645 272.362 10.1926 252.993 15.2249C233.603 20.2751 216.789 27.4569 202.524 36.7911L221.091 87.7611L211.14 95.8224L225.572 100.065C239.816 92.6086 252.796 87.1947 264.507 83.8229C276.199 80.469 288.625 78.7906 301.799 78.7906C314.955 78.7906 324.915 81.9626 331.682 88.3067C338.447 94.6686 341.822 102.307 341.822 111.277C341.822 122.105 338.343 131.71 331.414 140.114C324.453 148.519 316.776 157.012 308.369 165.601C302.529 171.56 296.853 177.723 291.373 184.067C285.894 190.429 281.037 197.229 276.843 204.521C272.627 211.792 269.256 219.633 266.701 228.037C264.131 236.441 262.864 245.865 262.864 256.311C262.864 259.683 262.935 263.692 263.132 268.361C263.165 269.219 263.21 270.06 263.26 270.889H249.618L264.507 280.957H336.894C336.521 278.715 336.342 276.106 336.342 273.119C336.342 270.129 336.342 267.887 336.342 266.39C336.342 260.046 337.627 253.795 340.179 247.632C342.734 241.47 345.945 235.6 349.785 229.987C353.621 224.391 357.905 219.066 362.672 214.037C367.421 208.987 371.992 204.229 376.383 199.745C382.22 193.782 388.254 187.438 394.467 180.713C400.68 173.984 406.177 166.913 410.926 159.439C415.676 151.965 419.602 143.853 422.708 135.064C425.815 126.296 427.386 116.691 427.386 106.227C427.386 95.7806 425.636 84.7709 422.175 73.1948Z" fill="#00A346"/>
<path opacity="0.5" d="M286.471 75.2342C273.452 75.2342 261.172 76.859 249.617 80.1056C238.044 83.367 225.216 88.608 211.139 95.8226L188.362 34.5882C202.459 25.5551 219.077 18.6028 238.238 13.7166C257.38 8.84528 276.168 6.4126 294.604 6.4126C317.717 6.4126 336.77 9.48328 351.766 15.6216C366.761 21.76 378.6 29.5231 387.281 38.9259C395.942 48.3316 401.994 58.6169 405.434 69.8173C408.856 81.0208 410.585 91.6787 410.585 101.788C410.585 111.912 409.032 121.211 405.965 129.698C402.894 138.201 399.012 146.05 394.32 153.286C389.627 160.518 384.193 167.363 378.054 173.874C371.913 180.385 365.951 186.523 360.182 192.292C355.841 196.633 351.325 201.236 346.632 206.125C341.922 210.993 337.689 216.145 333.893 221.562C330.101 226.994 326.926 232.676 324.404 238.638C321.879 244.601 320.609 250.653 320.609 256.791C320.609 258.24 320.609 260.41 320.609 263.302C320.609 266.197 320.785 268.719 321.158 270.889H249.617C248.875 267.273 248.434 263.215 248.258 258.699C248.064 254.182 247.992 250.301 247.992 247.036C247.992 236.927 249.247 227.807 251.787 219.672C254.31 211.539 257.643 203.955 261.807 196.913C265.954 189.856 270.751 183.277 276.168 177.121C281.585 170.979 287.195 165.017 292.964 159.248C301.273 150.939 308.86 142.717 315.741 134.584C322.586 126.452 326.026 117.153 326.026 106.674C326.026 97.9929 322.69 90.6025 316.006 84.4433C309.319 78.3049 299.475 75.2342 286.471 75.2342Z" fill="#00A346"/>
<path d="M341.848 351.221C341.848 364.273 337.624 374.344 329.175 381.448C320.723 388.567 311.174 392.112 300.511 392.112C289.832 392.112 280.283 388.567 271.834 381.448C263.397 374.344 259.173 364.273 259.173 351.221C259.173 338.187 263.397 328.117 271.834 320.998C284.841 310.021 304.082 307.573 319.313 315.277C332.824 322.116 341.848 335.996 341.848 351.221Z" fill="#00A346"/>
<path opacity="0.5" d="M327.687 351.221C327.687 364.273 323.463 374.344 315.014 381.448C306.562 388.567 297.013 392.112 286.35 392.112C275.671 392.112 266.122 388.567 257.673 381.448C249.236 374.344 245.012 364.273 245.012 351.221C245.012 338.187 249.236 328.117 257.673 320.998C266.122 313.893 275.671 310.334 286.35 310.334C297.013 310.334 306.562 313.893 315.014 320.998C323.463 328.117 327.687 338.187 327.687 351.221Z" fill="#00A346"/>
<path d="M112.155 160.363C114.586 163.917 113.677 168.767 110.124 171.2C106.57 173.63 101.719 172.72 99.2875 169.167C96.856 165.613 97.7653 160.763 101.319 158.33C104.872 155.9 109.723 156.81 112.155 160.363Z" fill="#FBF7F2"/>
<path d="M117.108 180.844C116.661 183.223 114.357 184.791 111.959 184.341C109.563 183.891 107.981 181.598 108.427 179.216C108.873 176.837 111.178 175.272 113.575 175.722C115.972 176.169 117.554 178.465 117.108 180.844Z" fill="#FBF7F2"/>
<path d="M116.653 131.168C113.529 147.83 97.4901 158.804 80.8281 155.682C64.1657 152.558 53.19 136.519 56.3131 119.857C59.436 103.195 75.4753 92.2181 92.1377 95.3424C108.8 98.4668 119.775 114.506 116.653 131.168Z" fill="#FBF7F2"/>
<path d="M78.565 125.512C78.565 127.647 76.8332 129.379 74.6974 129.379C72.5617 129.379 70.8302 127.647 70.8302 125.512C70.8302 123.375 72.5617 121.646 74.6974 121.646C76.8332 121.646 78.565 123.375 78.565 125.512Z" fill="white"/>
<path d="M90.351 125.512C90.351 127.647 88.6195 129.379 86.4838 129.379C84.3477 129.379 82.6162 127.647 82.6162 125.512C82.6162 123.375 84.3477 121.646 86.4838 121.646C88.6195 121.646 90.351 123.375 90.351 125.512Z" fill="white"/>
<path d="M102.136 125.512C102.136 127.647 100.405 129.379 98.2686 129.379C96.1329 129.379 94.4014 127.647 94.4014 125.512C94.4014 123.375 96.1329 121.646 98.2686 121.646C100.405 121.646 102.136 123.375 102.136 125.512Z" fill="white"/>
<path d="M64.4943 376.746L67.3623 387.804C68.1103 390.687 70.8983 392.636 73.9824 392.425C83.3861 391.787 102.924 389.482 114.138 381.218L110.951 365.284C95.5322 364.41 81.1132 365.269 68.6275 369.472C65.5014 370.525 63.6933 373.658 64.4943 376.746Z" fill="#00A346"/>
<path d="M82.4656 385.547C82.3025 385.547 82.1526 385.44 82.1066 385.276L78.2558 371.487C78.2006 371.288 78.3166 371.082 78.5146 371.028C78.7143 370.972 78.9188 371.088 78.974 371.288L82.8245 385.076C82.88 385.273 82.764 385.478 82.5658 385.535C82.5324 385.544 82.4984 385.547 82.4656 385.547Z" fill="white"/>
<path d="M90.7868 383.684C90.6238 383.684 90.4741 383.576 90.4279 383.412L86.5773 369.624C86.5219 369.424 86.6379 369.219 86.8361 369.165C87.0356 369.108 87.2401 369.225 87.2952 369.424L91.1461 383.213C91.2012 383.409 91.0852 383.615 90.8873 383.672C90.8536 383.681 90.8199 383.684 90.7868 383.684Z" fill="white"/>
<path d="M100.452 316.979L64.6172 327.616L91.2303 364.079L129.437 367.117L182.136 344.835L162.11 314.701L100.452 316.979Z" fill="#00A346"/>
<path d="M144.633 322.044C223.33 298.749 235.979 368.301 113.189 380.962C108.852 376.082 103.784 367.612 101.771 360.535L166.614 330.57L144.633 322.044Z" fill="#00A346" fill-opacity="0.2"/>
<path d="M147.975 371.89C144.295 370.713 140.768 368.384 140.768 368.384L128.12 372.352L131.019 386.111L144.157 388.779C148.16 381.46 148.393 375.447 147.975 371.89Z" fill="#F9B384"/>
<path d="M102.052 361.018L101.49 360.052C115.018 352.19 149.668 333.301 179.189 327.732L179.397 328.832C150.045 334.368 115.529 353.186 102.052 361.018Z" fill="#00A346"/>
<path d="M100.452 316.979C27.2006 303.053 8.22902 373.449 131.018 386.11C135.355 381.23 138.754 375.461 140.767 368.384C121.906 355.764 100.817 343.768 77.7038 332.341L100.452 316.979Z" fill="#00A346" fill-opacity="0.2"/>
<path d="M140.467 368.855C136.982 366.637 133.352 364.294 129.508 361.81C110.211 349.352 88.3398 335.233 69.7578 327.18L70.2026 326.155C88.869 334.243 110.781 348.389 130.114 360.871C133.956 363.355 137.586 365.698 141.067 367.913L140.467 368.855Z" fill="#00A346"/>
<path d="M46.7095 351.883L45.7307 351.343C48.4803 346.365 52.8845 343.008 58.8207 341.365L59.1191 342.441C53.4041 344.024 49.3449 347.113 46.7095 351.883Z" fill="#00A346"/>
<path d="M199.596 347.646C196.961 342.877 192.902 339.788 187.187 338.202L187.485 337.126C193.421 338.771 197.825 342.128 200.575 347.107L199.596 347.646Z" fill="#00A346"/>
<path d="M124.159 385.493L123.342 384.73C129.202 378.454 132.8 371.827 134.344 364.476L135.438 364.705C133.852 372.262 130.162 379.063 124.159 385.493Z" fill="#00A346"/>
<path d="M184.509 367.793C175.123 361.995 156.929 372.015 152.362 372.519C151.031 372.668 149.49 372.376 147.976 371.89C148.394 375.446 148.16 381.459 144.158 388.778L146.39 389.231C146.39 389.231 161.818 394.89 178.185 391.596C193.292 388.558 191.887 372.352 184.509 367.793Z" fill="#00A346"/>
<path d="M171.716 386.76C171.678 386.76 171.641 386.754 171.604 386.742C171.407 386.68 171.298 386.471 171.36 386.274C172.475 382.745 172.962 375.798 169.732 371.133C169.615 370.963 169.657 370.733 169.827 370.614C169.995 370.498 170.228 370.539 170.345 370.709C173.727 375.593 173.23 382.828 172.071 386.498C172.021 386.656 171.874 386.76 171.716 386.76Z" fill="white"/>
<path d="M164.356 388.156C164.319 388.156 164.282 388.15 164.244 388.138C164.048 388.078 163.939 387.867 164.001 387.673C165.116 384.14 165.602 377.197 162.373 372.531C162.256 372.361 162.298 372.129 162.467 372.012C162.636 371.896 162.868 371.938 162.986 372.108C166.368 376.991 165.871 384.227 164.711 387.896C164.661 388.054 164.515 388.156 164.356 388.156Z" fill="white"/>
<path d="M87.4939 226.212C87.4939 226.212 105.942 210.525 105.259 207.544C104.771 205.412 99.545 208.537 99.545 208.537C99.545 208.537 106.874 199.843 106.501 198.785C105.835 196.901 100.766 200.416 100.766 200.416C100.766 200.416 104.192 195.485 102.555 194.683C100.917 193.878 97.3457 196.919 97.3457 196.919C97.3457 196.919 99.432 194.179 98.4517 193.461C97.4712 192.742 93.2429 195.697 93.2429 195.697C93.2429 195.697 94.7604 192.244 91.5365 193.553C88.3129 194.862 65.7092 215.605 65.7092 215.605L87.4939 226.212Z" fill="#F9B384"/>
<path d="M95.0416 207.606C94.9519 207.606 94.8618 207.574 94.7903 207.508C91.6239 204.616 90.2275 203.913 86.7338 202.836C86.5371 202.777 86.4268 202.568 86.4873 202.371C86.5478 202.175 86.7562 202.064 86.9529 202.127C90.5727 203.239 92.0184 203.966 95.2932 206.957C95.4453 207.097 95.4557 207.332 95.3168 207.484C95.2434 207.565 95.1427 207.606 95.0416 207.606Z" fill="#E28B6D"/>
<path d="M89.4834 216.115L89.4315 216.112C89.2276 216.082 89.0854 215.894 89.114 215.691C89.4765 213.098 90.2931 211.476 91.6105 210.734C92.7365 210.102 94.2018 210.167 95.9658 210.927C96.1548 211.011 96.2418 211.229 96.1601 211.416C96.0788 211.607 95.8593 211.694 95.6703 211.613C94.1317 210.948 92.8888 210.871 91.9757 211.384C90.8902 211.995 90.1756 213.479 89.8519 215.793C89.8259 215.981 89.6664 216.115 89.4834 216.115Z" fill="#E28B6D"/>
<path d="M88.6139 200.434C88.5149 200.434 88.4159 200.392 88.3426 200.314C88.2016 200.165 88.2084 199.93 88.3584 199.79L92.9873 195.425C93.1373 195.285 93.3728 195.291 93.5144 195.44C93.6554 195.592 93.6486 195.828 93.4986 195.968L88.8694 200.329C88.7975 200.398 88.7057 200.434 88.6139 200.434Z" fill="#E28B6D"/>
<path d="M92.9 201.924C92.8069 201.924 92.7142 201.889 92.6418 201.82C92.4933 201.677 92.4885 201.441 92.631 201.292L97.0775 196.659C97.22 196.51 97.4559 196.504 97.6046 196.648C97.7531 196.791 97.7579 197.026 97.6154 197.175L93.1689 201.808C93.0955 201.886 92.9977 201.924 92.9 201.924Z" fill="#E28B6D"/>
<path d="M97.2769 204.533C97.186 204.533 97.0947 204.497 97.0229 204.431C96.8723 204.291 96.864 204.056 97.0044 203.904L100.493 200.162C100.633 200.013 100.869 200.004 101.02 200.144C101.17 200.284 101.178 200.52 101.038 200.669L97.5497 204.413C97.476 204.491 97.3768 204.533 97.2769 204.533Z" fill="#E28B6D"/>
<path d="M157.182 331.139L89.7321 333.748L82.2791 272.26C82.2791 272.26 104.86 250.84 113.547 242.955L128.213 242.204C173.716 262.884 166.265 288.717 157.182 331.139Z" fill="#00A346" fill-opacity="0.2"/>
<path d="M128.213 242.204C128.213 242.204 180.272 246.655 196.683 282.322C212.742 317.22 146.748 329.649 146.748 329.649L128.213 242.204Z" fill="#00A346" fill-opacity="0.2"/>
<path d="M68.7066 249.845L90.2189 223.667L70.1021 211.474C61.7106 217.311 45.4832 230.527 31.7311 245.492C28.6956 248.796 26.3246 252.653 25.1303 256.901C24.1117 260.527 23.9262 264.107 24.4992 267.613C25.9919 276.753 33.1808 283.807 42.7771 284.931C50.9728 285.891 82.2784 283.44 107.619 275.987L115.072 247.221C111.242 245.048 82.778 244.67 68.7066 249.845Z" fill="#00A346" fill-opacity="0.2"/>
<path d="M156.933 258.833C153.513 258.833 148.552 258.067 146.743 253.941C145.548 251.219 146.39 248.223 147.702 246.085C147.888 246.139 148.073 246.193 148.261 246.246C146.979 248.262 146.122 251.135 147.255 253.717C148.939 257.557 153.64 258.276 156.917 258.276C158.071 258.276 159.048 258.186 159.655 258.112C163.535 257.643 167.472 256.746 171.286 255.867C171.522 256.004 171.759 256.141 171.994 256.278C171.882 256.305 171.769 256.332 171.657 256.356C167.752 257.256 163.714 258.186 159.722 258.666C159.101 258.741 158.108 258.833 156.933 258.833Z" fill="#EAF5F4"/>
<path d="M183.009 316.082C180.372 312.743 178.989 308.947 179.156 305.328C179.402 300.016 183.457 295.332 188.194 294.882C188.487 294.855 188.777 294.843 189.065 294.843C191.45 294.843 193.734 295.726 195.952 296.581C196.838 296.924 197.739 297.27 198.651 297.565C198.608 297.747 198.561 297.926 198.513 298.108C197.577 297.807 196.656 297.455 195.75 297.103C193.486 296.23 191.335 295.401 189.074 295.401C188.8 295.401 188.524 295.413 188.247 295.44C183.776 295.863 179.948 300.308 179.715 305.352C179.552 308.855 180.906 312.54 183.484 315.78C183.327 315.882 183.168 315.983 183.009 316.082Z" fill="#EAF5F4"/>
<path d="M39.1641 284.194C38.9697 284.138 38.7825 284.066 38.5908 284.004C41.5077 280.65 45.7532 278.116 50.7021 276.834C52.5796 276.348 54.3994 276.109 56.1118 276.109C59.4639 276.109 62.404 277.027 64.5549 278.804C66.1567 280.131 67.2655 281.851 68.0611 283.693C67.868 283.714 67.6751 283.738 67.4834 283.759C66.7235 282.045 65.678 280.459 64.1993 279.237C62.1485 277.54 59.3348 276.667 56.1145 276.667C54.4492 276.667 52.6747 276.902 50.8419 277.376C46.0895 278.605 42.0019 281.01 39.1641 284.194Z" fill="#EAF5F4"/>
<path d="M35.1738 241.834C35.4165 241.584 35.6592 241.33 35.9024 241.08C41.647 239.592 47.2392 237.532 52.4092 234.554C54.4299 233.391 56.7093 231.909 58.2927 229.76C59.935 227.53 60.4859 224.889 59.7666 222.7C59.484 221.839 58.9798 221.085 58.3511 220.485C58.4948 220.369 58.6388 220.25 58.7813 220.134C59.4547 220.787 59.9937 221.597 60.2978 222.525C61.0732 224.886 60.4922 227.715 58.7425 230.094C57.0978 232.327 54.759 233.847 52.6879 235.04C47.2067 238.197 41.2639 240.323 35.1738 241.834Z" fill="#EAF5F4"/>
<path d="M132.977 228.532L132.967 229.486L132.816 244.311L132.797 245.918C132.769 248.431 131.739 250.709 130.076 252.363C128.422 254.006 126.145 255.038 123.622 255.056C118.538 255.082 114.381 251.001 114.334 245.909L114.154 227.587L132.977 228.532Z" fill="#F9B384"/>
<path d="M132.968 229.486L132.817 244.312C124.578 240.958 121.185 232.038 121.185 232.038L132.968 229.486Z" fill="#00A346" fill-opacity="0.2"/>
<path d="M136.227 203.615C139.18 207.159 147.802 227.238 139.062 234.089C129.226 241.798 114.258 229.128 114.258 229.128L112.25 205.74L125.242 202.315L136.227 203.615Z" fill="#F9B384"/>
<path d="M105.632 202.327C105.632 202.327 76.8135 217.358 100.311 260.684C103.329 266.247 110.014 268.677 115.733 265.961H115.733C121.867 263.048 124.19 255.553 120.859 249.636C117.015 242.809 113.305 234.017 114.889 227.473L105.632 202.327Z" fill="#00A346"/>
<path d="M116.148 209.44C116.148 213.748 112.658 217.236 108.353 217.236C104.047 217.236 100.557 213.748 100.557 209.44C100.557 205.135 104.047 201.647 108.353 201.647C112.658 201.647 116.148 205.135 116.148 209.44Z" fill="#00A346" fill-opacity="0.2"/>
<path d="M117.942 218.807C117.099 213.944 116.586 210.608 121.502 208.101C121.502 208.101 138.825 211.252 142.133 204.718C145.44 198.18 140.4 187.865 129.849 195.032C102.84 189.755 99.2178 215.033 107.407 223.458L115.49 222.217C117.116 221.967 118.222 220.429 117.942 218.807Z" fill="#00A346"/>
<path d="M132.507 218.822C132.507 219.457 131.991 219.973 131.355 219.973C130.719 219.973 130.203 219.457 130.203 218.822C130.203 218.187 130.719 217.671 131.355 217.671C131.991 217.671 132.507 218.187 132.507 218.822Z" fill="#00A346"/>
<path d="M140.302 214.982C140.302 215.62 139.787 216.136 139.151 216.136C138.515 216.136 137.999 215.62 137.999 214.982C137.999 214.347 138.515 213.831 139.151 213.831C139.787 213.831 140.302 214.347 140.302 214.982Z" fill="#00A346"/>
<path d="M138.354 222.367C138.273 222.367 138.192 222.337 138.129 222.277C137.999 222.152 137.994 221.946 138.118 221.815C138.579 221.329 139.085 220.647 138.873 220.152C138.652 219.636 137.718 219.415 137.291 219.415C136.372 219.415 135.931 217.779 135.852 217.451C135.81 217.278 135.917 217.102 136.092 217.057C136.267 217.015 136.443 217.123 136.486 217.299C136.654 217.99 137.033 218.762 137.291 218.762C137.731 218.762 139.075 218.968 139.472 219.892C139.755 220.554 139.459 221.35 138.59 222.265C138.526 222.334 138.44 222.367 138.354 222.367Z" fill="#00A346"/>
<path d="M138.412 226.737C138.349 226.737 138.286 226.719 138.23 226.68C136.061 225.216 133.872 226.445 133.85 226.457C133.694 226.546 133.495 226.492 133.405 226.337C133.315 226.179 133.369 225.983 133.525 225.89C133.629 225.831 136.092 224.45 138.595 226.141C138.744 226.242 138.783 226.445 138.682 226.594C138.619 226.686 138.516 226.737 138.412 226.737Z" fill="#00A346"/>
<path d="M130.851 213.834C131.506 215.066 130.365 215.316 129.027 216.025C127.69 216.735 126.32 216.997 126.008 216.407C125.695 215.82 126.526 214.767 127.863 214.055C129.201 213.345 130.344 212.88 130.851 213.834Z" fill="#00A346"/>
<path d="M135.73 211.607C136.018 212.707 136.839 212.227 138.033 211.914C139.227 211.601 140.191 211.002 140.054 210.477C139.916 209.953 138.837 209.78 137.643 210.093C136.449 210.406 135.507 210.754 135.73 211.607Z" fill="#00A346"/>
<path d="M126.04 227.592C124.165 227.592 122.645 226.072 122.645 224.197C122.645 222.319 124.165 220.801 126.04 220.801C127.916 220.801 129.436 222.319 129.436 224.197C129.436 226.072 127.916 227.592 126.04 227.592Z" fill="#F39176"/>
<path d="M115.955 220.569C118.24 222.331 118.834 225.389 117.283 227.402C115.731 229.411 112.62 229.611 110.335 227.849C108.05 226.087 107.456 223.025 109.008 221.016C110.56 219.003 113.67 218.804 115.955 220.569Z" fill="#F9B384"/>
<path d="M115.166 225.911C114.985 225.911 114.84 225.765 114.84 225.586C114.84 224.623 114.37 223.735 113.584 223.204C112.912 222.754 112.111 222.647 111.441 222.921C111.274 222.987 111.084 222.909 111.016 222.742C110.948 222.575 111.028 222.384 111.195 222.316C112.066 221.961 113.095 222.092 113.948 222.665C114.915 223.314 115.492 224.406 115.492 225.586C115.492 225.765 115.346 225.911 115.166 225.911Z" fill="#387885"/>
<path d="M57.2114 262.825L56.6641 262.318L68.4328 249.591L68.9801 250.098L57.2114 262.825Z" fill="#387885"/>
<path d="M151.328 304.293L151.111 303.581C159.677 300.969 167.99 297.845 175.524 288.424L176.106 288.889C168.439 298.477 160.011 301.646 151.328 304.293Z" fill="#387885"/>
<path d="M156.537 275.432H83.6707C81.0499 275.432 78.9258 277.731 78.9258 280.563V332.588C78.9258 335.424 81.0499 337.722 83.6707 337.722H156.537C159.158 337.722 161.282 335.424 161.282 332.588V280.563C161.282 277.731 159.158 275.432 156.537 275.432Z" fill="#FBF7F2"/>
<path d="M123.95 301.798H116.256C115.158 301.798 114.265 302.71 114.265 303.831V309.323C114.265 310.444 115.158 311.356 116.256 311.356H123.95C125.048 311.356 125.941 310.444 125.941 309.323V303.831C125.941 302.71 125.048 301.798 123.95 301.798ZM123.95 303.289C124.226 303.289 124.451 303.53 124.451 303.831V309.323C124.451 309.621 124.226 309.865 123.95 309.865H116.256C115.98 309.865 115.756 309.621 115.756 309.323V303.831C115.756 303.53 115.98 303.289 116.256 303.289H123.95Z" fill="#00A346"/>
<path d="M439.337 393H0V391.509H439.337V393Z" fill="#387885"/>
</svg>
