<svg width="19" height="19" viewBox="0 0 19 19" fill="none" xmlns="http://www.w3.org/2000/svg">
<path d="M0.84964 3.31507C0.84964 2.73786 1.05235 2.26167 1.45775 1.8865C1.86315 1.51131 2.39019 1.32373 3.03883 1.32373C3.6759 1.32373 4.19133 1.50842 4.58516 1.87784C4.99056 2.2588 5.19327 2.75518 5.19327 3.36702C5.19327 3.92113 4.99636 4.38288 4.60254 4.7523C4.19714 5.13325 3.66431 5.32373 3.00408 5.32373H2.98671C2.34963 5.32373 1.8342 5.13325 1.44037 4.7523C1.04655 4.37135 0.84964 3.89227 0.84964 3.31507ZM1.07551 18.4666V6.89949H4.93265V18.4666H1.07551ZM7.06972 18.4666H10.9269V12.0077C10.9269 11.6037 10.9732 11.292 11.0659 11.0726C11.228 10.6801 11.4742 10.3482 11.8043 10.077C12.1344 9.80568 12.5485 9.67005 13.0466 9.67005C14.3439 9.67005 14.9925 10.5416 14.9925 12.2848V18.4666H18.8496V11.8345C18.8496 10.126 18.4442 8.83022 17.6334 7.9471C16.8226 7.06399 15.7512 6.62243 14.4191 6.62243C12.9249 6.62243 11.7608 7.26312 10.9269 8.54451V8.57914H10.9095L10.9269 8.54451V6.89949H7.06972C7.09288 7.26889 7.10447 8.41751 7.10447 10.3454C7.10447 12.2732 7.09288 14.9803 7.06972 18.4666Z" fill="#00A346"/>
</svg>
