<svg width="25" height="18" viewBox="0 0 25 18" fill="none" xmlns="http://www.w3.org/2000/svg">
<g clip-path="url(#clip0_1_2060)">
<path fill-rule="evenodd" clip-rule="evenodd" d="M23.6806 8C24.4093 8 25 8.42533 25 8.95V9.05C25 9.57467 24.4093 10 23.6806 10H1.31944C0.590735 10 0 9.57467 0 9.05V8.95C0 8.42533 0.590735 8 1.31944 8H23.6806Z" fill="white"/>
<path fill-rule="evenodd" clip-rule="evenodd" d="M23.6806 15.5C24.4093 15.5 25 15.9253 25 16.45V16.55C25 17.0747 24.4093 17.5 23.6806 17.5H1.31944C0.590735 17.5 0 17.0747 0 16.55V16.45C0 15.9253 0.590735 15.5 1.31944 15.5H23.6806Z" fill="white"/>
<path fill-rule="evenodd" clip-rule="evenodd" d="M23.6806 0.5C24.4093 0.5 25 0.925329 25 1.45V1.55C25 2.07467 24.4093 2.5 23.6806 2.5H1.31944C0.590735 2.5 0 2.07467 0 1.55V1.45C0 0.925329 0.590735 0.5 1.31944 0.5H23.6806Z" fill="white"/>
</g>
<defs>
<clipPath id="clip0_1_2060">
<rect width="25" height="17" fill="white" transform="translate(0 0.5)"/>
</clipPath>
</defs>
</svg>
