<svg width="228" height="259" viewBox="0 0 228 259" fill="none" xmlns="http://www.w3.org/2000/svg">
<g opacity="0.4">
<path d="M227.288 2.45801V3.56934H225.824V5.23633H224.847V3.56934H223.383V2.45801H224.847V0.791016H225.824V2.45801H227.288Z" fill="white"/>
<path d="M227.288 15.7939V16.9053H225.824V18.5723H224.847V16.9053H223.383V15.7939H224.847V14.127H225.824V15.7939H227.288Z" fill="white"/>
<path d="M227.288 29.1299V30.2412H225.824V31.9082H224.847V30.2412H223.383V29.1299H224.847V27.4629H225.824V29.1299H227.288Z" fill="white"/>
<path d="M227.288 42.4658V43.5771H225.824V45.2441H224.847V43.5771H223.383V42.4658H224.847V40.7988H225.824V42.4658H227.288Z" fill="white"/>
<path d="M227.288 55.8018V56.9131H225.824V58.5801H224.847V56.9131H223.383V55.8018H224.847V54.1348H225.824V55.8018H227.288Z" fill="white"/>
<path d="M227.288 69.1377V70.249H225.824V71.916H224.847V70.249H223.383V69.1377H224.847V67.4707H225.824V69.1377H227.288Z" fill="white"/>
<path d="M227.288 82.4736V83.585H225.824V85.2519H224.847V83.585H223.383V82.4736H224.847V80.8066H225.824V82.4736H227.288Z" fill="white"/>
<path d="M227.288 95.8096V96.9209H225.824V98.5879H224.847V96.9209H223.383V95.8096H224.847V94.1426H225.824V95.8096H227.288Z" fill="white"/>
<path d="M227.288 109.146V110.257H225.824V111.924H224.847V110.257H223.383V109.146H224.847V107.479H225.824V109.146H227.288Z" fill="white"/>
<path d="M227.288 122.481V123.593H225.824V125.26H224.847V123.593H223.383V122.481H224.847V120.814H225.824V122.481H227.288Z" fill="white"/>
<path d="M227.288 135.817V136.929H225.824V138.596H224.847V136.929H223.383V135.817H224.847V134.15H225.824V135.817H227.288Z" fill="white"/>
<path d="M227.288 149.153V150.265H225.824V151.932H224.847V150.265H223.383V149.153H224.847V147.486H225.824V149.153H227.288Z" fill="white"/>
<path d="M227.288 162.489V163.601H225.824V165.268H224.847V163.601H223.383V162.489H224.847V160.822H225.824V162.489H227.288Z" fill="white"/>
<path d="M227.288 175.825V176.937H225.824V178.604H224.847V176.937H223.383V175.825H224.847V174.158H225.824V175.825H227.288Z" fill="white"/>
<path d="M227.288 189.161V190.272H225.824V191.939H224.847V190.272H223.383V189.161H224.847V187.494H225.824V189.161H227.288Z" fill="white"/>
<path d="M227.288 202.497V203.608H225.824V205.275H224.847V203.608H223.383V202.497H224.847V200.83H225.824V202.497H227.288Z" fill="white"/>
<path d="M227.288 215.833V216.944H225.824V218.611H224.847V216.944H223.383V215.833H224.847V214.166H225.824V215.833H227.288Z" fill="white"/>
<path d="M227.288 229.169V230.28H225.824V231.947H224.847V230.28H223.383V229.169H224.847V227.502H225.824V229.169H227.288Z" fill="white"/>
<path d="M227.288 242.505V243.616H225.824V245.283H224.847V243.616H223.383V242.505H224.847V240.838H225.824V242.505H227.288Z" fill="white"/>
<path d="M227.288 255.841V256.952H225.824V258.619H224.847V256.952H223.383V255.841H224.847V254.174H225.824V255.841H227.288Z" fill="white"/>
<path d="M215.573 2.45801V3.56934H214.109V5.23633H213.132V3.56934H211.668V2.45801H213.132V0.791016H214.109V2.45801H215.573Z" fill="white"/>
<path d="M215.573 15.7939V16.9053H214.109V18.5723H213.132V16.9053H211.668V15.7939H213.132V14.127H214.109V15.7939H215.573Z" fill="white"/>
<path d="M215.573 29.1299V30.2412H214.109V31.9082H213.132V30.2412H211.668V29.1299H213.132V27.4629H214.109V29.1299H215.573Z" fill="white"/>
<path d="M215.573 42.4658V43.5771H214.109V45.2441H213.132V43.5771H211.668V42.4658H213.132V40.7988H214.109V42.4658H215.573Z" fill="white"/>
<path d="M215.573 55.8018V56.9131H214.109V58.5801H213.132V56.9131H211.668V55.8018H213.132V54.1348H214.109V55.8018H215.573Z" fill="white"/>
<path d="M215.573 69.1377V70.249H214.109V71.916H213.132V70.249H211.668V69.1377H213.132V67.4707H214.109V69.1377H215.573Z" fill="white"/>
<path d="M215.573 82.4736V83.585H214.109V85.2519H213.132V83.585H211.668V82.4736H213.132V80.8066H214.109V82.4736H215.573Z" fill="white"/>
<path d="M215.573 95.8096V96.9209H214.109V98.5879H213.132V96.9209H211.668V95.8096H213.132V94.1426H214.109V95.8096H215.573Z" fill="white"/>
<path d="M215.573 109.146V110.257H214.109V111.924H213.132V110.257H211.668V109.146H213.132V107.479H214.109V109.146H215.573Z" fill="white"/>
<path d="M215.573 122.481V123.593H214.109V125.26H213.132V123.593H211.668V122.481H213.132V120.814H214.109V122.481H215.573Z" fill="white"/>
<path d="M215.573 135.817V136.929H214.109V138.596H213.132V136.929H211.668V135.817H213.132V134.15H214.109V135.817H215.573Z" fill="white"/>
<path d="M215.573 149.153V150.265H214.109V151.932H213.132V150.265H211.668V149.153H213.132V147.486H214.109V149.153H215.573Z" fill="white"/>
<path d="M215.573 162.489V163.601H214.109V165.268H213.132V163.601H211.668V162.489H213.132V160.822H214.109V162.489H215.573Z" fill="white"/>
<path d="M215.573 175.825V176.937H214.109V178.604H213.132V176.937H211.668V175.825H213.132V174.158H214.109V175.825H215.573Z" fill="white"/>
<path d="M215.573 189.161V190.272H214.109V191.939H213.132V190.272H211.668V189.161H213.132V187.494H214.109V189.161H215.573Z" fill="white"/>
<path d="M215.573 202.497V203.608H214.109V205.275H213.132V203.608H211.668V202.497H213.132V200.83H214.109V202.497H215.573Z" fill="white"/>
<path d="M215.573 215.833V216.944H214.109V218.611H213.132V216.944H211.668V215.833H213.132V214.166H214.109V215.833H215.573Z" fill="white"/>
<path d="M215.573 229.169V230.28H214.109V231.947H213.132V230.28H211.668V229.169H213.132V227.502H214.109V229.169H215.573Z" fill="white"/>
<path d="M215.573 242.505V243.616H214.109V245.283H213.132V243.616H211.668V242.505H213.132V240.838H214.109V242.505H215.573Z" fill="white"/>
<path d="M215.573 255.841V256.952H214.109V258.619H213.132V256.952H211.668V255.841H213.132V254.174H214.109V255.841H215.573Z" fill="white"/>
<path d="M203.858 2.45801V3.56934H202.394V5.23633H201.418V3.56934H199.953V2.45801H201.418V0.791016H202.394V2.45801H203.858Z" fill="white"/>
<path d="M203.858 15.7939V16.9053H202.394V18.5723H201.418V16.9053H199.953V15.7939H201.418V14.127H202.394V15.7939H203.858Z" fill="white"/>
<path d="M203.858 29.1299V30.2412H202.394V31.9082H201.418V30.2412H199.953V29.1299H201.418V27.4629H202.394V29.1299H203.858Z" fill="white"/>
<path d="M203.858 42.4658V43.5771H202.394V45.2441H201.418V43.5771H199.953V42.4658H201.418V40.7988H202.394V42.4658H203.858Z" fill="white"/>
<path d="M203.858 55.8018V56.9131H202.394V58.5801H201.418V56.9131H199.953V55.8018H201.418V54.1348H202.394V55.8018H203.858Z" fill="white"/>
<path d="M203.858 69.1377V70.249H202.394V71.916H201.418V70.249H199.953V69.1377H201.418V67.4707H202.394V69.1377H203.858Z" fill="white"/>
<path d="M203.858 82.4736V83.585H202.394V85.2519H201.418V83.585H199.953V82.4736H201.418V80.8066H202.394V82.4736H203.858Z" fill="white"/>
<path d="M203.858 95.8096V96.9209H202.394V98.5879H201.418V96.9209H199.953V95.8096H201.418V94.1426H202.394V95.8096H203.858Z" fill="white"/>
<path d="M203.858 109.146V110.257H202.394V111.924H201.418V110.257H199.953V109.146H201.418V107.479H202.394V109.146H203.858Z" fill="white"/>
<path d="M203.858 122.481V123.593H202.394V125.26H201.418V123.593H199.953V122.481H201.418V120.814H202.394V122.481H203.858Z" fill="white"/>
<path d="M203.858 135.817V136.929H202.394V138.596H201.418V136.929H199.953V135.817H201.418V134.15H202.394V135.817H203.858Z" fill="white"/>
<path d="M203.858 149.153V150.265H202.394V151.932H201.418V150.265H199.953V149.153H201.418V147.486H202.394V149.153H203.858Z" fill="white"/>
<path d="M203.858 162.489V163.601H202.394V165.268H201.418V163.601H199.953V162.489H201.418V160.822H202.394V162.489H203.858Z" fill="white"/>
<path d="M203.858 175.825V176.937H202.394V178.604H201.418V176.937H199.953V175.825H201.418V174.158H202.394V175.825H203.858Z" fill="white"/>
<path d="M203.858 189.161V190.272H202.394V191.939H201.418V190.272H199.953V189.161H201.418V187.494H202.394V189.161H203.858Z" fill="white"/>
<path d="M203.858 202.497V203.608H202.394V205.275H201.418V203.608H199.953V202.497H201.418V200.83H202.394V202.497H203.858Z" fill="white"/>
<path d="M203.858 215.832V216.943H202.394V218.61H201.418V216.943H199.953V215.832H201.418V214.165H202.394V215.832H203.858Z" fill="white"/>
<path d="M203.858 229.169V230.28H202.394V231.947H201.418V230.28H199.953V229.169H201.418V227.502H202.394V229.169H203.858Z" fill="white"/>
<path d="M203.858 242.505V243.616H202.394V245.283H201.418V243.616H199.953V242.505H201.418V240.838H202.394V242.505H203.858Z" fill="white"/>
<path d="M203.858 255.841V256.952H202.394V258.619H201.418V256.952H199.953V255.841H201.418V254.174H202.394V255.841H203.858Z" fill="white"/>
<path d="M192.14 2.45801V3.56934H190.675V5.23633H189.699V3.56934H188.234V2.45801H189.699V0.791016H190.675V2.45801H192.14Z" fill="white"/>
<path d="M192.14 15.7939V16.9053H190.675V18.5723H189.699V16.9053H188.234V15.7939H189.699V14.127H190.675V15.7939H192.14Z" fill="white"/>
<path d="M192.14 29.1299V30.2412H190.675V31.9082H189.699V30.2412H188.234V29.1299H189.699V27.4629H190.675V29.1299H192.14Z" fill="white"/>
<path d="M192.14 42.4658V43.5771H190.675V45.2441H189.699V43.5771H188.234V42.4658H189.699V40.7988H190.675V42.4658H192.14Z" fill="white"/>
<path d="M192.14 55.8018V56.9131H190.675V58.5801H189.699V56.9131H188.234V55.8018H189.699V54.1348H190.675V55.8018H192.14Z" fill="white"/>
<path d="M192.14 69.1377V70.249H190.675V71.916H189.699V70.249H188.234V69.1377H189.699V67.4707H190.675V69.1377H192.14Z" fill="white"/>
<path d="M192.14 82.4736V83.585H190.675V85.2519H189.699V83.585H188.234V82.4736H189.699V80.8066H190.675V82.4736H192.14Z" fill="white"/>
<path d="M192.14 95.8096V96.9209H190.675V98.5879H189.699V96.9209H188.234V95.8096H189.699V94.1426H190.675V95.8096H192.14Z" fill="white"/>
<path d="M192.14 109.146V110.257H190.675V111.924H189.699V110.257H188.234V109.146H189.699V107.479H190.675V109.146H192.14Z" fill="white"/>
<path d="M192.14 122.481V123.593H190.675V125.26H189.699V123.593H188.234V122.481H189.699V120.814H190.675V122.481H192.14Z" fill="white"/>
<path d="M192.14 135.817V136.929H190.675V138.596H189.699V136.929H188.234V135.817H189.699V134.15H190.675V135.817H192.14Z" fill="white"/>
<path d="M192.14 149.153V150.265H190.675V151.932H189.699V150.265H188.234V149.153H189.699V147.486H190.675V149.153H192.14Z" fill="white"/>
<path d="M192.14 162.489V163.601H190.675V165.268H189.699V163.601H188.234V162.489H189.699V160.822H190.675V162.489H192.14Z" fill="white"/>
<path d="M192.14 175.825V176.937H190.675V178.604H189.699V176.937H188.234V175.825H189.699V174.158H190.675V175.825H192.14Z" fill="white"/>
<path d="M192.14 189.161V190.272H190.675V191.939H189.699V190.272H188.234V189.161H189.699V187.494H190.675V189.161H192.14Z" fill="white"/>
<path d="M192.14 202.497V203.608H190.675V205.275H189.699V203.608H188.234V202.497H189.699V200.83H190.675V202.497H192.14Z" fill="white"/>
<path d="M192.14 215.833V216.944H190.675V218.611H189.699V216.944H188.234V215.833H189.699V214.166H190.675V215.833H192.14Z" fill="white"/>
<path d="M192.14 229.169V230.28H190.675V231.947H189.699V230.28H188.234V229.169H189.699V227.502H190.675V229.169H192.14Z" fill="white"/>
<path d="M192.14 242.505V243.616H190.675V245.283H189.699V243.616H188.234V242.505H189.699V240.838H190.675V242.505H192.14Z" fill="white"/>
<path d="M192.14 255.841V256.952H190.675V258.619H189.699V256.952H188.234V255.841H189.699V254.174H190.675V255.841H192.14Z" fill="white"/>
<path d="M180.427 2.45801V3.56934H178.962V5.23633H177.986V3.56934H176.521V2.45801H177.986V0.791016H178.962V2.45801H180.427Z" fill="white"/>
<path d="M180.427 15.7939V16.9053H178.962V18.5723H177.986V16.9053H176.521V15.7939H177.986V14.127H178.962V15.7939H180.427Z" fill="white"/>
<path d="M180.427 29.1299V30.2412H178.962V31.9082H177.986V30.2412H176.521V29.1299H177.986V27.4629H178.962V29.1299H180.427Z" fill="white"/>
<path d="M180.427 42.4658V43.5771H178.962V45.2441H177.986V43.5771H176.521V42.4658H177.986V40.7988H178.962V42.4658H180.427Z" fill="white"/>
<path d="M180.427 55.8018V56.9131H178.962V58.5801H177.986V56.9131H176.521V55.8018H177.986V54.1348H178.962V55.8018H180.427Z" fill="white"/>
<path d="M180.427 69.1377V70.249H178.962V71.916H177.986V70.249H176.521V69.1377H177.986V67.4707H178.962V69.1377H180.427Z" fill="white"/>
<path d="M180.427 82.4736V83.585H178.962V85.2519H177.986V83.585H176.521V82.4736H177.986V80.8066H178.962V82.4736H180.427Z" fill="white"/>
<path d="M180.427 95.8096V96.9209H178.962V98.5879H177.986V96.9209H176.521V95.8096H177.986V94.1426H178.962V95.8096H180.427Z" fill="white"/>
<path d="M180.427 109.146V110.257H178.962V111.924H177.986V110.257H176.521V109.146H177.986V107.479H178.962V109.146H180.427Z" fill="white"/>
<path d="M180.427 122.481V123.593H178.962V125.26H177.986V123.593H176.521V122.481H177.986V120.814H178.962V122.481H180.427Z" fill="white"/>
<path d="M180.427 135.817V136.929H178.962V138.596H177.986V136.929H176.521V135.817H177.986V134.15H178.962V135.817H180.427Z" fill="white"/>
<path d="M180.427 149.153V150.265H178.962V151.932H177.986V150.265H176.521V149.153H177.986V147.486H178.962V149.153H180.427Z" fill="white"/>
<path d="M180.427 162.489V163.601H178.962V165.268H177.986V163.601H176.521V162.489H177.986V160.822H178.962V162.489H180.427Z" fill="white"/>
<path d="M180.427 175.825V176.937H178.962V178.604H177.986V176.937H176.521V175.825H177.986V174.158H178.962V175.825H180.427Z" fill="white"/>
<path d="M180.427 189.161V190.272H178.962V191.939H177.986V190.272H176.521V189.161H177.986V187.494H178.962V189.161H180.427Z" fill="white"/>
<path d="M180.427 202.497V203.608H178.962V205.275H177.986V203.608H176.521V202.497H177.986V200.83H178.962V202.497H180.427Z" fill="white"/>
<path d="M180.427 215.833V216.944H178.962V218.611H177.986V216.944H176.521V215.833H177.986V214.166H178.962V215.833H180.427Z" fill="white"/>
<path d="M180.427 229.169V230.28H178.962V231.947H177.986V230.28H176.521V229.169H177.986V227.502H178.962V229.169H180.427Z" fill="white"/>
<path d="M180.427 242.505V243.616H178.962V245.283H177.986V243.616H176.521V242.505H177.986V240.838H178.962V242.505H180.427Z" fill="white"/>
<path d="M180.427 255.841V256.952H178.962V258.619H177.986V256.952H176.521V255.841H177.986V254.174H178.962V255.841H180.427Z" fill="white"/>
<path d="M168.712 2.45801V3.56934H167.247V5.23633H166.271V3.56934H164.807V2.45801H166.271V0.791016H167.247V2.45801H168.712Z" fill="white"/>
<path d="M168.712 15.7939V16.9053H167.247V18.5723H166.271V16.9053H164.807V15.7939H166.271V14.127H167.247V15.7939H168.712Z" fill="white"/>
<path d="M168.712 29.1299V30.2412H167.247V31.9082H166.271V30.2412H164.807V29.1299H166.271V27.4629H167.247V29.1299H168.712Z" fill="white"/>
<path d="M168.712 42.4658V43.5771H167.247V45.2441H166.271V43.5771H164.807V42.4658H166.271V40.7988H167.247V42.4658H168.712Z" fill="white"/>
<path d="M168.712 55.8018V56.9131H167.247V58.5801H166.271V56.9131H164.807V55.8018H166.271V54.1348H167.247V55.8018H168.712Z" fill="white"/>
<path d="M168.712 69.1377V70.249H167.247V71.916H166.271V70.249H164.807V69.1377H166.271V67.4707H167.247V69.1377H168.712Z" fill="white"/>
<path d="M168.712 82.4736V83.585H167.247V85.2519H166.271V83.585H164.807V82.4736H166.271V80.8066H167.247V82.4736H168.712Z" fill="white"/>
<path d="M168.712 95.8096V96.9209H167.247V98.5879H166.271V96.9209H164.807V95.8096H166.271V94.1426H167.247V95.8096H168.712Z" fill="white"/>
<path d="M168.712 109.146V110.257H167.247V111.924H166.271V110.257H164.807V109.146H166.271V107.479H167.247V109.146H168.712Z" fill="white"/>
<path d="M168.712 122.481V123.593H167.247V125.26H166.271V123.593H164.807V122.481H166.271V120.814H167.247V122.481H168.712Z" fill="white"/>
<path d="M168.712 135.817V136.929H167.247V138.596H166.271V136.929H164.807V135.817H166.271V134.15H167.247V135.817H168.712Z" fill="white"/>
<path d="M168.712 149.153V150.265H167.247V151.932H166.271V150.265H164.807V149.153H166.271V147.486H167.247V149.153H168.712Z" fill="white"/>
<path d="M168.712 162.489V163.601H167.247V165.268H166.271V163.601H164.807V162.489H166.271V160.822H167.247V162.489H168.712Z" fill="white"/>
<path d="M168.712 175.825V176.937H167.247V178.604H166.271V176.937H164.807V175.825H166.271V174.158H167.247V175.825H168.712Z" fill="white"/>
<path d="M168.712 189.161V190.272H167.247V191.939H166.271V190.272H164.807V189.161H166.271V187.494H167.247V189.161H168.712Z" fill="white"/>
<path d="M168.712 202.497V203.608H167.247V205.275H166.271V203.608H164.807V202.497H166.271V200.83H167.247V202.497H168.712Z" fill="white"/>
<path d="M168.712 215.833V216.944H167.247V218.611H166.271V216.944H164.807V215.833H166.271V214.166H167.247V215.833H168.712Z" fill="white"/>
<path d="M168.712 229.169V230.28H167.247V231.947H166.271V230.28H164.807V229.169H166.271V227.502H167.247V229.169H168.712Z" fill="white"/>
<path d="M168.712 242.505V243.616H167.247V245.283H166.271V243.616H164.807V242.505H166.271V240.838H167.247V242.505H168.712Z" fill="white"/>
<path d="M168.712 255.841V256.952H167.247V258.619H166.271V256.952H164.807V255.841H166.271V254.174H167.247V255.841H168.712Z" fill="white"/>
<path d="M156.997 2.45801V3.56934H155.533V5.23633H154.556V3.56934H153.092V2.45801H154.556V0.791016H155.533V2.45801H156.997Z" fill="white"/>
<path d="M156.997 15.7939V16.9053H155.533V18.5723H154.556V16.9053H153.092V15.7939H154.556V14.127H155.533V15.7939H156.997Z" fill="white"/>
<path d="M156.997 29.1299V30.2412H155.533V31.9082H154.556V30.2412H153.092V29.1299H154.556V27.4629H155.533V29.1299H156.997Z" fill="white"/>
<path d="M156.997 42.4658V43.5771H155.533V45.2441H154.556V43.5771H153.092V42.4658H154.556V40.7988H155.533V42.4658H156.997Z" fill="white"/>
<path d="M156.997 55.8018V56.9131H155.533V58.5801H154.556V56.9131H153.092V55.8018H154.556V54.1348H155.533V55.8018H156.997Z" fill="white"/>
<path d="M156.997 69.1377V70.249H155.533V71.916H154.556V70.249H153.092V69.1377H154.556V67.4707H155.533V69.1377H156.997Z" fill="white"/>
<path d="M156.997 82.4736V83.585H155.533V85.2519H154.556V83.585H153.092V82.4736H154.556V80.8066H155.533V82.4736H156.997Z" fill="white"/>
<path d="M156.997 95.8096V96.9209H155.533V98.5879H154.556V96.9209H153.092V95.8096H154.556V94.1426H155.533V95.8096H156.997Z" fill="white"/>
<path d="M156.997 109.146V110.257H155.533V111.924H154.556V110.257H153.092V109.146H154.556V107.479H155.533V109.146H156.997Z" fill="white"/>
<path d="M156.997 122.481V123.593H155.533V125.26H154.556V123.593H153.092V122.481H154.556V120.814H155.533V122.481H156.997Z" fill="white"/>
<path d="M156.997 135.817V136.929H155.533V138.596H154.556V136.929H153.092V135.817H154.556V134.15H155.533V135.817H156.997Z" fill="white"/>
<path d="M156.997 149.153V150.265H155.533V151.932H154.556V150.265H153.092V149.153H154.556V147.486H155.533V149.153H156.997Z" fill="white"/>
<path d="M156.997 162.489V163.601H155.533V165.268H154.556V163.601H153.092V162.489H154.556V160.822H155.533V162.489H156.997Z" fill="white"/>
<path d="M156.997 175.825V176.937H155.533V178.604H154.556V176.937H153.092V175.825H154.556V174.158H155.533V175.825H156.997Z" fill="white"/>
<path d="M156.997 189.161V190.272H155.533V191.939H154.556V190.272H153.092V189.161H154.556V187.494H155.533V189.161H156.997Z" fill="white"/>
<path d="M156.997 202.497V203.608H155.533V205.275H154.556V203.608H153.092V202.497H154.556V200.83H155.533V202.497H156.997Z" fill="white"/>
<path d="M156.997 215.833V216.944H155.533V218.611H154.556V216.944H153.092V215.833H154.556V214.166H155.533V215.833H156.997Z" fill="white"/>
<path d="M156.997 229.169V230.28H155.533V231.947H154.556V230.28H153.092V229.169H154.556V227.502H155.533V229.169H156.997Z" fill="white"/>
<path d="M156.997 242.505V243.616H155.533V245.283H154.556V243.616H153.092V242.505H154.556V240.838H155.533V242.505H156.997Z" fill="white"/>
<path d="M156.997 255.841V256.952H155.533V258.619H154.556V256.952H153.092V255.841H154.556V254.174H155.533V255.841H156.997Z" fill="white"/>
<path d="M145.28 2.45801V3.56934H143.816V5.23633H142.839V3.56934H141.375V2.45801H142.839V0.791016H143.816V2.45801H145.28Z" fill="white"/>
<path d="M145.28 15.7939V16.9053H143.816V18.5723H142.839V16.9053H141.375V15.7939H142.839V14.127H143.816V15.7939H145.28Z" fill="white"/>
<path d="M145.28 29.1299V30.2412H143.816V31.9082H142.839V30.2412H141.375V29.1299H142.839V27.4629H143.816V29.1299H145.28Z" fill="white"/>
<path d="M145.28 42.4658V43.5771H143.816V45.2441H142.839V43.5771H141.375V42.4658H142.839V40.7988H143.816V42.4658H145.28Z" fill="white"/>
<path d="M145.28 55.8018V56.9131H143.816V58.5801H142.839V56.9131H141.375V55.8018H142.839V54.1348H143.816V55.8018H145.28Z" fill="white"/>
<path d="M145.28 69.1377V70.249H143.816V71.916H142.839V70.249H141.375V69.1377H142.839V67.4707H143.816V69.1377H145.28Z" fill="white"/>
<path d="M145.28 82.4736V83.585H143.816V85.2519H142.839V83.585H141.375V82.4736H142.839V80.8066H143.816V82.4736H145.28Z" fill="white"/>
<path d="M145.28 95.8096V96.9209H143.816V98.5879H142.839V96.9209H141.375V95.8096H142.839V94.1426H143.816V95.8096H145.28Z" fill="white"/>
<path d="M145.28 109.146V110.257H143.816V111.924H142.839V110.257H141.375V109.146H142.839V107.479H143.816V109.146H145.28Z" fill="white"/>
<path d="M145.28 122.481V123.593H143.816V125.26H142.839V123.593H141.375V122.481H142.839V120.814H143.816V122.481H145.28Z" fill="white"/>
<path d="M145.28 135.817V136.929H143.816V138.596H142.839V136.929H141.375V135.817H142.839V134.15H143.816V135.817H145.28Z" fill="white"/>
<path d="M145.28 149.153V150.265H143.816V151.932H142.839V150.265H141.375V149.153H142.839V147.486H143.816V149.153H145.28Z" fill="white"/>
<path d="M145.28 162.489V163.601H143.816V165.268H142.839V163.601H141.375V162.489H142.839V160.822H143.816V162.489H145.28Z" fill="white"/>
<path d="M145.28 175.825V176.937H143.816V178.604H142.839V176.937H141.375V175.825H142.839V174.158H143.816V175.825H145.28Z" fill="white"/>
<path d="M145.28 189.161V190.272H143.816V191.939H142.839V190.272H141.375V189.161H142.839V187.494H143.816V189.161H145.28Z" fill="white"/>
<path d="M145.28 202.497V203.608H143.816V205.275H142.839V203.608H141.375V202.497H142.839V200.83H143.816V202.497H145.28Z" fill="white"/>
<path d="M145.28 215.832V216.943H143.816V218.61H142.839V216.943H141.375V215.832H142.839V214.165H143.816V215.832H145.28Z" fill="white"/>
<path d="M145.28 229.169V230.28H143.816V231.947H142.839V230.28H141.375V229.169H142.839V227.502H143.816V229.169H145.28Z" fill="white"/>
<path d="M145.28 242.505V243.616H143.816V245.283H142.839V243.616H141.375V242.505H142.839V240.838H143.816V242.505H145.28Z" fill="white"/>
<path d="M145.28 255.841V256.952H143.816V258.619H142.839V256.952H141.375V255.841H142.839V254.174H143.816V255.841H145.28Z" fill="white"/>
<path d="M133.565 2.45801V3.56934H132.101V5.23633H131.125V3.56934H129.66V2.45801H131.125V0.791016H132.101V2.45801H133.565Z" fill="white"/>
<path d="M133.565 15.7939V16.9053H132.101V18.5723H131.125V16.9053H129.66V15.7939H131.125V14.127H132.101V15.7939H133.565Z" fill="white"/>
<path d="M133.565 29.1299V30.2412H132.101V31.9082H131.125V30.2412H129.66V29.1299H131.125V27.4629H132.101V29.1299H133.565Z" fill="white"/>
<path d="M133.565 42.4658V43.5771H132.101V45.2441H131.125V43.5771H129.66V42.4658H131.125V40.7988H132.101V42.4658H133.565Z" fill="white"/>
<path d="M133.565 55.8018V56.9131H132.101V58.5801H131.125V56.9131H129.66V55.8018H131.125V54.1348H132.101V55.8018H133.565Z" fill="white"/>
<path d="M133.565 69.1377V70.249H132.101V71.916H131.125V70.249H129.66V69.1377H131.125V67.4707H132.101V69.1377H133.565Z" fill="white"/>
<path d="M133.565 82.4736V83.585H132.101V85.2519H131.125V83.585H129.66V82.4736H131.125V80.8066H132.101V82.4736H133.565Z" fill="white"/>
<path d="M133.565 95.8096V96.9209H132.101V98.5879H131.125V96.9209H129.66V95.8096H131.125V94.1426H132.101V95.8096H133.565Z" fill="white"/>
<path d="M133.565 109.146V110.257H132.101V111.924H131.125V110.257H129.66V109.146H131.125V107.479H132.101V109.146H133.565Z" fill="white"/>
<path d="M133.565 122.481V123.593H132.101V125.26H131.125V123.593H129.66V122.481H131.125V120.814H132.101V122.481H133.565Z" fill="white"/>
<path d="M133.565 135.817V136.929H132.101V138.596H131.125V136.929H129.66V135.817H131.125V134.15H132.101V135.817H133.565Z" fill="white"/>
<path d="M133.565 149.153V150.265H132.101V151.932H131.125V150.265H129.66V149.153H131.125V147.486H132.101V149.153H133.565Z" fill="white"/>
<path d="M133.565 162.489V163.601H132.101V165.268H131.125V163.601H129.66V162.489H131.125V160.822H132.101V162.489H133.565Z" fill="white"/>
<path d="M133.565 175.825V176.937H132.101V178.604H131.125V176.937H129.66V175.825H131.125V174.158H132.101V175.825H133.565Z" fill="white"/>
<path d="M133.565 189.161V190.272H132.101V191.939H131.125V190.272H129.66V189.161H131.125V187.494H132.101V189.161H133.565Z" fill="white"/>
<path d="M133.565 202.497V203.608H132.101V205.275H131.125V203.608H129.66V202.497H131.125V200.83H132.101V202.497H133.565Z" fill="white"/>
<path d="M133.565 215.833V216.944H132.101V218.611H131.125V216.944H129.66V215.833H131.125V214.166H132.101V215.833H133.565Z" fill="white"/>
<path d="M133.565 229.169V230.28H132.101V231.947H131.125V230.28H129.66V229.169H131.125V227.502H132.101V229.169H133.565Z" fill="white"/>
<path d="M133.565 242.505V243.616H132.101V245.283H131.125V243.616H129.66V242.505H131.125V240.838H132.101V242.505H133.565Z" fill="white"/>
<path d="M133.565 255.841V256.952H132.101V258.619H131.125V256.952H129.66V255.841H131.125V254.174H132.101V255.841H133.565Z" fill="white"/>
<path d="M121.85 2.45801V3.56934H120.386V5.23633H119.41V3.56934H117.945V2.45801H119.41V0.791016H120.386V2.45801H121.85Z" fill="white"/>
<path d="M121.85 15.7939V16.9053H120.386V18.5723H119.41V16.9053H117.945V15.7939H119.41V14.127H120.386V15.7939H121.85Z" fill="white"/>
<path d="M121.85 29.1299V30.2412H120.386V31.9082H119.41V30.2412H117.945V29.1299H119.41V27.4629H120.386V29.1299H121.85Z" fill="white"/>
<path d="M121.85 42.4658V43.5771H120.386V45.2441H119.41V43.5771H117.945V42.4658H119.41V40.7988H120.386V42.4658H121.85Z" fill="white"/>
<path d="M121.85 55.8018V56.9131H120.386V58.5801H119.41V56.9131H117.945V55.8018H119.41V54.1348H120.386V55.8018H121.85Z" fill="white"/>
<path d="M121.85 69.1377V70.249H120.386V71.916H119.41V70.249H117.945V69.1377H119.41V67.4707H120.386V69.1377H121.85Z" fill="white"/>
<path d="M121.85 82.4736V83.585H120.386V85.2519H119.41V83.585H117.945V82.4736H119.41V80.8066H120.386V82.4736H121.85Z" fill="white"/>
<path d="M121.85 95.8096V96.9209H120.386V98.5879H119.41V96.9209H117.945V95.8096H119.41V94.1426H120.386V95.8096H121.85Z" fill="white"/>
<path d="M121.85 109.146V110.257H120.386V111.924H119.41V110.257H117.945V109.146H119.41V107.479H120.386V109.146H121.85Z" fill="white"/>
<path d="M121.85 122.481V123.593H120.386V125.26H119.41V123.593H117.945V122.481H119.41V120.814H120.386V122.481H121.85Z" fill="white"/>
<path d="M121.85 135.817V136.929H120.386V138.596H119.41V136.929H117.945V135.817H119.41V134.15H120.386V135.817H121.85Z" fill="white"/>
<path d="M121.85 149.153V150.265H120.386V151.932H119.41V150.265H117.945V149.153H119.41V147.486H120.386V149.153H121.85Z" fill="white"/>
<path d="M121.85 162.489V163.601H120.386V165.268H119.41V163.601H117.945V162.489H119.41V160.822H120.386V162.489H121.85Z" fill="white"/>
<path d="M121.85 175.825V176.937H120.386V178.604H119.41V176.937H117.945V175.825H119.41V174.158H120.386V175.825H121.85Z" fill="white"/>
<path d="M121.85 189.161V190.272H120.386V191.939H119.41V190.272H117.945V189.161H119.41V187.494H120.386V189.161H121.85Z" fill="white"/>
<path d="M121.85 202.497V203.608H120.386V205.275H119.41V203.608H117.945V202.497H119.41V200.83H120.386V202.497H121.85Z" fill="white"/>
<path d="M121.85 215.833V216.944H120.386V218.611H119.41V216.944H117.945V215.833H119.41V214.166H120.386V215.833H121.85Z" fill="white"/>
<path d="M121.85 229.169V230.28H120.386V231.947H119.41V230.28H117.945V229.169H119.41V227.502H120.386V229.169H121.85Z" fill="white"/>
<path d="M121.85 242.505V243.616H120.386V245.283H119.41V243.616H117.945V242.505H119.41V240.838H120.386V242.505H121.85Z" fill="white"/>
<path d="M121.85 255.841V256.952H120.386V258.619H119.41V256.952H117.945V255.841H119.41V254.174H120.386V255.841H121.85Z" fill="white"/>
<path d="M110.133 2.45801V3.56934H108.669V5.23633H107.693V3.56934H106.228V2.45801H107.693V0.791016H108.669V2.45801H110.133Z" fill="white"/>
<path d="M110.133 15.7939V16.9053H108.669V18.5723H107.693V16.9053H106.228V15.7939H107.693V14.127H108.669V15.7939H110.133Z" fill="white"/>
<path d="M110.134 29.1299V30.2412H108.669V31.9082H107.693V30.2412H106.229V29.1299H107.693V27.4629H108.669V29.1299H110.134Z" fill="white"/>
<path d="M110.133 42.4658V43.5771H108.669V45.2441H107.693V43.5771H106.228V42.4658H107.693V40.7988H108.669V42.4658H110.133Z" fill="white"/>
<path d="M110.133 55.8018V56.9131H108.669V58.5801H107.693V56.9131H106.228V55.8018H107.693V54.1348H108.669V55.8018H110.133Z" fill="white"/>
<path d="M110.133 69.1377V70.249H108.669V71.916H107.693V70.249H106.228V69.1377H107.693V67.4707H108.669V69.1377H110.133Z" fill="white"/>
<path d="M110.134 82.4736V83.585H108.669V85.2519H107.693V83.585H106.229V82.4736H107.693V80.8066H108.669V82.4736H110.134Z" fill="white"/>
<path d="M110.132 95.8096V96.9209H108.667V98.5879H107.691V96.9209H106.226V95.8096H107.691V94.1426H108.667V95.8096H110.132Z" fill="white"/>
<path d="M110.132 109.146V110.257H108.667V111.924H107.691V110.257H106.227V109.146H107.691V107.479H108.667V109.146H110.132Z" fill="white"/>
<path d="M110.134 122.481V123.593H108.669V125.26H107.693V123.593H106.229V122.481H107.693V120.814H108.669V122.481H110.134Z" fill="white"/>
<path d="M110.134 135.817V136.929H108.669V138.596H107.693V136.929H106.229V135.817H107.693V134.15H108.669V135.817H110.134Z" fill="white"/>
<path d="M110.134 149.153V150.265H108.669V151.932H107.693V150.265H106.229V149.153H107.693V147.486H108.669V149.153H110.134Z" fill="white"/>
<path d="M110.134 162.489V163.601H108.669V165.268H107.693V163.601H106.229V162.489H107.693V160.822H108.669V162.489H110.134Z" fill="white"/>
<path d="M110.133 175.825V176.937H108.669V178.604H107.693V176.937H106.228V175.825H107.693V174.158H108.669V175.825H110.133Z" fill="white"/>
<path d="M110.134 189.161V190.272H108.669V191.939H107.693V190.272H106.229V189.161H107.693V187.494H108.669V189.161H110.134Z" fill="white"/>
<path d="M110.134 202.497V203.608H108.669V205.275H107.693V203.608H106.229V202.497H107.693V200.83H108.669V202.497H110.134Z" fill="white"/>
<path d="M110.134 215.833V216.944H108.669V218.611H107.693V216.944H106.229V215.833H107.693V214.166H108.669V215.833H110.134Z" fill="white"/>
<path d="M110.134 229.169V230.28H108.669V231.947H107.693V230.28H106.229V229.169H107.693V227.502H108.669V229.169H110.134Z" fill="white"/>
<path d="M110.133 242.505V243.616H108.669V245.283H107.693V243.616H106.228V242.505H107.693V240.838H108.669V242.505H110.133Z" fill="white"/>
<path d="M110.133 255.841V256.952H108.669V258.619H107.693V256.952H106.228V255.841H107.693V254.174H108.669V255.841H110.133Z" fill="white"/>
<path d="M98.4189 2.45801V3.56934H96.9544V5.23633H95.9781V3.56934H94.5137V2.45801H95.9781V0.791016H96.9544V2.45801H98.4189Z" fill="white"/>
<path d="M98.4189 15.7939V16.9053H96.9544V18.5723H95.9781V16.9053H94.5137V15.7939H95.9781V14.127H96.9544V15.7939H98.4189Z" fill="white"/>
<path d="M98.4189 29.1299V30.2412H96.9544V31.9082H95.9781V30.2412H94.5137V29.1299H95.9781V27.4629H96.9544V29.1299H98.4189Z" fill="white"/>
<path d="M98.4189 42.4658V43.5771H96.9544V45.2441H95.9781V43.5771H94.5137V42.4658H95.9781V40.7988H96.9544V42.4658H98.4189Z" fill="white"/>
<path d="M98.4189 55.8018V56.9131H96.9544V58.5801H95.9781V56.9131H94.5137V55.8018H95.9781V54.1348H96.9544V55.8018H98.4189Z" fill="white"/>
<path d="M98.4189 69.1377V70.249H96.9544V71.916H95.9781V70.249H94.5137V69.1377H95.9781V67.4707H96.9544V69.1377H98.4189Z" fill="white"/>
<path d="M98.4189 82.4736V83.585H96.9544V85.2519H95.9781V83.585H94.5137V82.4736H95.9781V80.8066H96.9544V82.4736H98.4189Z" fill="white"/>
<path d="M98.4189 95.8096V96.9209H96.9544V98.5879H95.9781V96.9209H94.5137V95.8096H95.9781V94.1426H96.9544V95.8096H98.4189Z" fill="white"/>
<path d="M98.4189 109.146V110.257H96.9544V111.924H95.9781V110.257H94.5137V109.146H95.9781V107.479H96.9544V109.146H98.4189Z" fill="white"/>
<path d="M98.4189 122.481V123.593H96.9544V125.26H95.9781V123.593H94.5137V122.481H95.9781V120.814H96.9544V122.481H98.4189Z" fill="white"/>
<path d="M98.4189 135.817V136.929H96.9544V138.596H95.9781V136.929H94.5137V135.817H95.9781V134.15H96.9544V135.817H98.4189Z" fill="white"/>
<path d="M98.4189 149.153V150.265H96.9544V151.932H95.9781V150.265H94.5137V149.153H95.9781V147.486H96.9544V149.153H98.4189Z" fill="white"/>
<path d="M98.4189 162.489V163.601H96.9544V165.268H95.9781V163.601H94.5137V162.489H95.9781V160.822H96.9544V162.489H98.4189Z" fill="white"/>
<path d="M98.4189 175.825V176.937H96.9544V178.604H95.9781V176.937H94.5137V175.825H95.9781V174.158H96.9544V175.825H98.4189Z" fill="white"/>
<path d="M98.4189 189.161V190.272H96.9544V191.939H95.9781V190.272H94.5137V189.161H95.9781V187.494H96.9544V189.161H98.4189Z" fill="white"/>
<path d="M98.4189 202.497V203.608H96.9544V205.275H95.9781V203.608H94.5137V202.497H95.9781V200.83H96.9544V202.497H98.4189Z" fill="white"/>
<path d="M98.4189 215.833V216.944H96.9544V218.611H95.9781V216.944H94.5137V215.833H95.9781V214.166H96.9544V215.833H98.4189Z" fill="white"/>
<path d="M98.4189 229.169V230.28H96.9544V231.947H95.9781V230.28H94.5137V229.169H95.9781V227.502H96.9544V229.169H98.4189Z" fill="white"/>
<path d="M98.4189 242.505V243.616H96.9544V245.283H95.9781V243.616H94.5137V242.505H95.9781V240.838H96.9544V242.505H98.4189Z" fill="white"/>
<path d="M98.4189 255.841V256.952H96.9544V258.619H95.9781V256.952H94.5137V255.841H95.9781V254.174H96.9544V255.841H98.4189Z" fill="white"/>
<path d="M86.7021 2.45801V3.56934H85.2376V5.23633H84.2613V3.56934H82.7969V2.45801H84.2613V0.791016H85.2376V2.45801H86.7021Z" fill="white"/>
<path d="M86.7021 15.7939V16.9053H85.2376V18.5723H84.2613V16.9053H82.7969V15.7939H84.2613V14.127H85.2376V15.7939H86.7021Z" fill="white"/>
<path d="M86.7021 29.1299V30.2412H85.2376V31.9082H84.2613V30.2412H82.7969V29.1299H84.2613V27.4629H85.2376V29.1299H86.7021Z" fill="white"/>
<path d="M86.7021 42.4658V43.5771H85.2376V45.2441H84.2613V43.5771H82.7969V42.4658H84.2613V40.7988H85.2376V42.4658H86.7021Z" fill="white"/>
<path d="M86.7021 55.8018V56.9131H85.2376V58.5801H84.2613V56.9131H82.7969V55.8018H84.2613V54.1348H85.2376V55.8018H86.7021Z" fill="white"/>
<path d="M86.7021 69.1377V70.249H85.2376V71.916H84.2613V70.249H82.7969V69.1377H84.2613V67.4707H85.2376V69.1377H86.7021Z" fill="white"/>
<path d="M86.7021 82.4736V83.585H85.2376V85.2519H84.2613V83.585H82.7969V82.4736H84.2613V80.8066H85.2376V82.4736H86.7021Z" fill="white"/>
<path d="M86.7021 95.8096V96.9209H85.2376V98.5879H84.2613V96.9209H82.7969V95.8096H84.2613V94.1426H85.2376V95.8096H86.7021Z" fill="white"/>
<path d="M86.7021 109.146V110.257H85.2376V111.924H84.2613V110.257H82.7969V109.146H84.2613V107.479H85.2376V109.146H86.7021Z" fill="white"/>
<path d="M86.7021 122.481V123.593H85.2376V125.26H84.2613V123.593H82.7969V122.481H84.2613V120.814H85.2376V122.481H86.7021Z" fill="white"/>
<path d="M86.7021 135.817V136.929H85.2376V138.596H84.2613V136.929H82.7969V135.817H84.2613V134.15H85.2376V135.817H86.7021Z" fill="white"/>
<path d="M86.7021 149.153V150.265H85.2376V151.932H84.2613V150.265H82.7969V149.153H84.2613V147.486H85.2376V149.153H86.7021Z" fill="white"/>
<path d="M86.7021 162.489V163.601H85.2376V165.268H84.2613V163.601H82.7969V162.489H84.2613V160.822H85.2376V162.489H86.7021Z" fill="white"/>
<path d="M86.7021 175.825V176.937H85.2376V178.604H84.2613V176.937H82.7969V175.825H84.2613V174.158H85.2376V175.825H86.7021Z" fill="white"/>
<path d="M86.7021 189.161V190.272H85.2376V191.939H84.2613V190.272H82.7969V189.161H84.2613V187.494H85.2376V189.161H86.7021Z" fill="white"/>
<path d="M86.7021 202.497V203.608H85.2376V205.275H84.2613V203.608H82.7969V202.497H84.2613V200.83H85.2376V202.497H86.7021Z" fill="white"/>
<path d="M86.7021 215.833V216.944H85.2376V218.611H84.2613V216.944H82.7969V215.833H84.2613V214.166H85.2376V215.833H86.7021Z" fill="white"/>
<path d="M86.7021 229.169V230.28H85.2376V231.947H84.2613V230.28H82.7969V229.169H84.2613V227.502H85.2376V229.169H86.7021Z" fill="white"/>
<path d="M86.7021 242.505V243.616H85.2376V245.283H84.2613V243.616H82.7969V242.505H84.2613V240.838H85.2376V242.505H86.7021Z" fill="white"/>
<path d="M86.7021 255.841V256.952H85.2376V258.619H84.2613V256.952H82.7969V255.841H84.2613V254.174H85.2376V255.841H86.7021Z" fill="white"/>
<path d="M74.989 2.45801V3.56934H73.5246V5.23633H72.5483V3.56934H71.0839V2.45801H72.5483V0.791016H73.5246V2.45801H74.989Z" fill="white"/>
<path d="M74.989 15.7939V16.9053H73.5246V18.5723H72.5483V16.9053H71.0839V15.7939H72.5483V14.127H73.5246V15.7939H74.989Z" fill="white"/>
<path d="M74.9892 29.1299V30.2412H73.5247V31.9082H72.5484V30.2412H71.084V29.1299H72.5484V27.4629H73.5247V29.1299H74.9892Z" fill="white"/>
<path d="M74.989 42.4658V43.5771H73.5246V45.2441H72.5483V43.5771H71.0839V42.4658H72.5483V40.7988H73.5246V42.4658H74.989Z" fill="white"/>
<path d="M74.989 55.8018V56.9131H73.5246V58.5801H72.5483V56.9131H71.0839V55.8018H72.5483V54.1348H73.5246V55.8018H74.989Z" fill="white"/>
<path d="M74.989 69.1377V70.249H73.5246V71.916H72.5483V70.249H71.0839V69.1377H72.5483V67.4707H73.5246V69.1377H74.989Z" fill="white"/>
<path d="M74.9892 82.4736V83.585H73.5247V85.2519H72.5484V83.585H71.084V82.4736H72.5484V80.8066H73.5247V82.4736H74.9892Z" fill="white"/>
<path d="M74.989 95.8096V96.9209H73.5246V98.5879H72.5483V96.9209H71.0839V95.8096H72.5483V94.1426H73.5246V95.8096H74.989Z" fill="white"/>
<path d="M74.9892 109.146V110.257H73.5247V111.924H72.5484V110.257H71.084V109.146H72.5484V107.479H73.5247V109.146H74.9892Z" fill="white"/>
<path d="M74.989 122.481V123.593H73.5246V125.26H72.5483V123.593H71.0839V122.481H72.5483V120.814H73.5246V122.481H74.989Z" fill="white"/>
<path d="M74.989 135.817V136.929H73.5246V138.596H72.5483V136.929H71.0839V135.817H72.5483V134.15H73.5246V135.817H74.989Z" fill="white"/>
<path d="M74.989 149.153V150.265H73.5246V151.932H72.5483V150.265H71.0839V149.153H72.5483V147.486H73.5246V149.153H74.989Z" fill="white"/>
<path d="M74.989 162.489V163.601H73.5246V165.268H72.5483V163.601H71.0839V162.489H72.5483V160.822H73.5246V162.489H74.989Z" fill="white"/>
<path d="M74.989 175.825V176.937H73.5246V178.604H72.5483V176.937H71.0839V175.825H72.5483V174.158H73.5246V175.825H74.989Z" fill="white"/>
<path d="M74.9892 189.161V190.272H73.5247V191.939H72.5484V190.272H71.084V189.161H72.5484V187.494H73.5247V189.161H74.9892Z" fill="white"/>
<path d="M74.9892 202.497V203.608H73.5247V205.275H72.5484V203.608H71.084V202.497H72.5484V200.83H73.5247V202.497H74.9892Z" fill="white"/>
<path d="M74.9892 215.833V216.944H73.5247V218.611H72.5484V216.944H71.084V215.833H72.5484V214.166H73.5247V215.833H74.9892Z" fill="white"/>
<path d="M74.9892 229.169V230.28H73.5247V231.947H72.5484V230.28H71.084V229.169H72.5484V227.502H73.5247V229.169H74.9892Z" fill="white"/>
<path d="M74.9892 242.505V243.616H73.5247V245.283H72.5484V243.616H71.084V242.505H72.5484V240.838H73.5247V242.505H74.9892Z" fill="white"/>
<path d="M74.989 255.841V256.952H73.5246V258.619H72.5483V256.952H71.0839V255.841H72.5483V254.174H73.5246V255.841H74.989Z" fill="white"/>
<path d="M63.2704 2.45801V3.56934H61.806V5.23633H60.8297V3.56934H59.3652V2.45801H60.8297V0.791016H61.806V2.45801H63.2704Z" fill="white"/>
<path d="M63.2704 15.7939V16.9053H61.806V18.5723H60.8297V16.9053H59.3652V15.7939H60.8297V14.127H61.806V15.7939H63.2704Z" fill="white"/>
<path d="M63.2704 29.1299V30.2412H61.806V31.9082H60.8297V30.2412H59.3652V29.1299H60.8297V27.4629H61.806V29.1299H63.2704Z" fill="white"/>
<path d="M63.2704 42.4658V43.5771H61.806V45.2441H60.8297V43.5771H59.3652V42.4658H60.8297V40.7988H61.806V42.4658H63.2704Z" fill="white"/>
<path d="M63.2704 55.8018V56.9131H61.806V58.5801H60.8297V56.9131H59.3652V55.8018H60.8297V54.1348H61.806V55.8018H63.2704Z" fill="white"/>
<path d="M63.2704 69.1377V70.249H61.806V71.916H60.8297V70.249H59.3652V69.1377H60.8297V67.4707H61.806V69.1377H63.2704Z" fill="white"/>
<path d="M63.2704 82.4736V83.585H61.806V85.2519H60.8297V83.585H59.3652V82.4736H60.8297V80.8066H61.806V82.4736H63.2704Z" fill="white"/>
<path d="M63.2704 95.8096V96.9209H61.806V98.5879H60.8297V96.9209H59.3652V95.8096H60.8297V94.1426H61.806V95.8096H63.2704Z" fill="white"/>
<path d="M63.2704 109.146V110.257H61.806V111.924H60.8297V110.257H59.3652V109.146H60.8297V107.479H61.806V109.146H63.2704Z" fill="white"/>
<path d="M63.2704 122.481V123.593H61.806V125.26H60.8297V123.593H59.3652V122.481H60.8297V120.814H61.806V122.481H63.2704Z" fill="white"/>
<path d="M63.2704 135.817V136.929H61.806V138.596H60.8297V136.929H59.3652V135.817H60.8297V134.15H61.806V135.817H63.2704Z" fill="white"/>
<path d="M63.2704 149.153V150.265H61.806V151.932H60.8297V150.265H59.3652V149.153H60.8297V147.486H61.806V149.153H63.2704Z" fill="white"/>
<path d="M63.2704 162.489V163.601H61.806V165.268H60.8297V163.601H59.3652V162.489H60.8297V160.822H61.806V162.489H63.2704Z" fill="white"/>
<path d="M63.2704 175.825V176.937H61.806V178.604H60.8297V176.937H59.3652V175.825H60.8297V174.158H61.806V175.825H63.2704Z" fill="white"/>
<path d="M63.2704 189.161V190.272H61.806V191.939H60.8297V190.272H59.3652V189.161H60.8297V187.494H61.806V189.161H63.2704Z" fill="white"/>
<path d="M63.2704 202.497V203.608H61.806V205.275H60.8297V203.608H59.3652V202.497H60.8297V200.83H61.806V202.497H63.2704Z" fill="white"/>
<path d="M63.2704 215.833V216.944H61.806V218.611H60.8297V216.944H59.3652V215.833H60.8297V214.166H61.806V215.833H63.2704Z" fill="white"/>
<path d="M63.2704 229.169V230.28H61.806V231.947H60.8297V230.28H59.3652V229.169H60.8297V227.502H61.806V229.169H63.2704Z" fill="white"/>
<path d="M63.2704 242.505V243.616H61.806V245.283H60.8297V243.616H59.3652V242.505H60.8297V240.838H61.806V242.505H63.2704Z" fill="white"/>
<path d="M63.2704 255.841V256.952H61.806V258.619H60.8297V256.952H59.3652V255.841H60.8297V254.174H61.806V255.841H63.2704Z" fill="white"/>
<path d="M51.5575 2.45801V3.56934H50.0931V5.23633H49.1168V3.56934H47.6523V2.45801H49.1168V0.791016H50.0931V2.45801H51.5575Z" fill="white"/>
<path d="M51.5575 15.7939V16.9053H50.0931V18.5723H49.1168V16.9053H47.6523V15.7939H49.1168V14.127H50.0931V15.7939H51.5575Z" fill="white"/>
<path d="M51.5575 29.1299V30.2412H50.0931V31.9082H49.1168V30.2412H47.6523V29.1299H49.1168V27.4629H50.0931V29.1299H51.5575Z" fill="white"/>
<path d="M51.5575 42.4658V43.5771H50.0931V45.2441H49.1168V43.5771H47.6523V42.4658H49.1168V40.7988H50.0931V42.4658H51.5575Z" fill="white"/>
<path d="M51.5575 55.8018V56.9131H50.0931V58.5801H49.1168V56.9131H47.6523V55.8018H49.1168V54.1348H50.0931V55.8018H51.5575Z" fill="white"/>
<path d="M51.5575 69.1377V70.249H50.0931V71.916H49.1168V70.249H47.6523V69.1377H49.1168V67.4707H50.0931V69.1377H51.5575Z" fill="white"/>
<path d="M51.5575 82.4736V83.585H50.0931V85.2519H49.1168V83.585H47.6523V82.4736H49.1168V80.8066H50.0931V82.4736H51.5575Z" fill="white"/>
<path d="M51.5575 95.8096V96.9209H50.0931V98.5879H49.1168V96.9209H47.6523V95.8096H49.1168V94.1426H50.0931V95.8096H51.5575Z" fill="white"/>
<path d="M51.5575 109.146V110.257H50.0931V111.924H49.1168V110.257H47.6523V109.146H49.1168V107.479H50.0931V109.146H51.5575Z" fill="white"/>
<path d="M51.5575 122.481V123.593H50.0931V125.26H49.1168V123.593H47.6523V122.481H49.1168V120.814H50.0931V122.481H51.5575Z" fill="white"/>
<path d="M51.5575 135.817V136.929H50.0931V138.596H49.1168V136.929H47.6523V135.817H49.1168V134.15H50.0931V135.817H51.5575Z" fill="white"/>
<path d="M51.5575 149.153V150.265H50.0931V151.932H49.1168V150.265H47.6523V149.153H49.1168V147.486H50.0931V149.153H51.5575Z" fill="white"/>
<path d="M51.5575 162.489V163.601H50.0931V165.268H49.1168V163.601H47.6523V162.489H49.1168V160.822H50.0931V162.489H51.5575Z" fill="white"/>
<path d="M51.5575 175.825V176.937H50.0931V178.604H49.1168V176.937H47.6523V175.825H49.1168V174.158H50.0931V175.825H51.5575Z" fill="white"/>
<path d="M51.5575 189.161V190.272H50.0931V191.939H49.1168V190.272H47.6523V189.161H49.1168V187.494H50.0931V189.161H51.5575Z" fill="white"/>
<path d="M51.5575 202.497V203.608H50.0931V205.275H49.1168V203.608H47.6523V202.497H49.1168V200.83H50.0931V202.497H51.5575Z" fill="white"/>
<path d="M51.5575 215.833V216.944H50.0931V218.611H49.1168V216.944H47.6523V215.833H49.1168V214.166H50.0931V215.833H51.5575Z" fill="white"/>
<path d="M51.5575 229.169V230.28H50.0931V231.947H49.1168V230.28H47.6523V229.169H49.1168V227.502H50.0931V229.169H51.5575Z" fill="white"/>
<path d="M51.5575 242.505V243.616H50.0931V245.283H49.1168V243.616H47.6523V242.505H49.1168V240.838H50.0931V242.505H51.5575Z" fill="white"/>
<path d="M51.5575 255.841V256.952H50.0931V258.619H49.1168V256.952H47.6523V255.841H49.1168V254.174H50.0931V255.841H51.5575Z" fill="white"/>
<path d="M39.8387 2.45801V3.56934H38.3742V5.23633H37.3979V3.56934H35.9335V2.45801H37.3979V0.791016H38.3742V2.45801H39.8387Z" fill="white"/>
<path d="M39.8387 15.7939V16.9053H38.3742V18.5723H37.3979V16.9053H35.9335V15.7939H37.3979V14.127H38.3742V15.7939H39.8387Z" fill="white"/>
<path d="M39.8388 29.1299V30.2412H38.3743V31.9082H37.398V30.2412H35.9336V29.1299H37.398V27.4629H38.3743V29.1299H39.8388Z" fill="white"/>
<path d="M39.8387 42.4658V43.5771H38.3742V45.2441H37.3979V43.5771H35.9335V42.4658H37.3979V40.7988H38.3742V42.4658H39.8387Z" fill="white"/>
<path d="M39.8387 55.8018V56.9131H38.3742V58.5801H37.3979V56.9131H35.9335V55.8018H37.3979V54.1348H38.3742V55.8018H39.8387Z" fill="white"/>
<path d="M39.8388 69.1377V70.249H38.3743V71.916H37.398V70.249H35.9336V69.1377H37.398V67.4707H38.3743V69.1377H39.8388Z" fill="white"/>
<path d="M39.8387 82.4736V83.585H38.3742V85.2519H37.3979V83.585H35.9335V82.4736H37.3979V80.8066H38.3742V82.4736H39.8387Z" fill="white"/>
<path d="M39.8387 95.8096V96.9209H38.3742V98.5879H37.3979V96.9209H35.9335V95.8096H37.3979V94.1426H38.3742V95.8096H39.8387Z" fill="white"/>
<path d="M39.8388 109.146V110.257H38.3743V111.924H37.398V110.257H35.9336V109.146H37.398V107.479H38.3743V109.146H39.8388Z" fill="white"/>
<path d="M39.8388 122.481V123.593H38.3743V125.26H37.398V123.593H35.9336V122.481H37.398V120.814H38.3743V122.481H39.8388Z" fill="white"/>
<path d="M39.8387 135.817V136.929H38.3742V138.596H37.3979V136.929H35.9335V135.817H37.3979V134.15H38.3742V135.817H39.8387Z" fill="white"/>
<path d="M39.8387 149.153V150.265H38.3742V151.932H37.3979V150.265H35.9335V149.153H37.3979V147.486H38.3742V149.153H39.8387Z" fill="white"/>
<path d="M39.8387 162.489V163.601H38.3742V165.268H37.3979V163.601H35.9335V162.489H37.3979V160.822H38.3742V162.489H39.8387Z" fill="white"/>
<path d="M39.8387 175.825V176.937H38.3742V178.604H37.3979V176.937H35.9335V175.825H37.3979V174.158H38.3742V175.825H39.8387Z" fill="white"/>
<path d="M39.8388 189.161V190.272H38.3743V191.939H37.398V190.272H35.9336V189.161H37.398V187.494H38.3743V189.161H39.8388Z" fill="white"/>
<path d="M39.8388 202.497V203.608H38.3743V205.275H37.398V203.608H35.9336V202.497H37.398V200.83H38.3743V202.497H39.8388Z" fill="white"/>
<path d="M39.8387 215.832V216.943H38.3742V218.61H37.3979V216.943H35.9335V215.832H37.3979V214.165H38.3742V215.832H39.8387Z" fill="white"/>
<path d="M39.8388 229.169V230.28H38.3743V231.947H37.398V230.28H35.9336V229.169H37.398V227.502H38.3743V229.169H39.8388Z" fill="white"/>
<path d="M39.8407 242.505V243.616H38.3763V245.283H37.4V243.616H35.9355V242.505H37.4V240.838H38.3763V242.505H39.8407Z" fill="white"/>
<path d="M39.8387 255.841V256.952H38.3742V258.619H37.3979V256.952H35.9335V255.841H37.3979V254.174H38.3742V255.841H39.8387Z" fill="white"/>
<path d="M28.1259 2.45801V3.56934H26.6614V5.23633H25.6851V3.56934H24.2207V2.45801H25.6851V0.791016H26.6614V2.45801H28.1259Z" fill="white"/>
<path d="M28.1259 15.7939V16.9053H26.6614V18.5723H25.6851V16.9053H24.2207V15.7939H25.6851V14.127H26.6614V15.7939H28.1259Z" fill="white"/>
<path d="M28.1259 29.1299V30.2412H26.6614V31.9082H25.6851V30.2412H24.2207V29.1299H25.6851V27.4629H26.6614V29.1299H28.1259Z" fill="white"/>
<path d="M28.1259 42.4658V43.5771H26.6614V45.2441H25.6851V43.5771H24.2207V42.4658H25.6851V40.7988H26.6614V42.4658H28.1259Z" fill="white"/>
<path d="M28.1259 55.8018V56.9131H26.6614V58.5801H25.6851V56.9131H24.2207V55.8018H25.6851V54.1348H26.6614V55.8018H28.1259Z" fill="white"/>
<path d="M28.1259 69.1377V70.249H26.6614V71.916H25.6851V70.249H24.2207V69.1377H25.6851V67.4707H26.6614V69.1377H28.1259Z" fill="white"/>
<path d="M28.1259 82.4736V83.585H26.6614V85.2519H25.6851V83.585H24.2207V82.4736H25.6851V80.8066H26.6614V82.4736H28.1259Z" fill="white"/>
<path d="M28.1259 95.8096V96.9209H26.6614V98.5879H25.6851V96.9209H24.2207V95.8096H25.6851V94.1426H26.6614V95.8096H28.1259Z" fill="white"/>
<path d="M28.1259 109.146V110.257H26.6614V111.924H25.6851V110.257H24.2207V109.146H25.6851V107.479H26.6614V109.146H28.1259Z" fill="white"/>
<path d="M28.1259 122.481V123.593H26.6614V125.26H25.6851V123.593H24.2207V122.481H25.6851V120.814H26.6614V122.481H28.1259Z" fill="white"/>
<path d="M28.1259 135.817V136.929H26.6614V138.596H25.6851V136.929H24.2207V135.817H25.6851V134.15H26.6614V135.817H28.1259Z" fill="white"/>
<path d="M28.1259 149.153V150.265H26.6614V151.932H25.6851V150.265H24.2207V149.153H25.6851V147.486H26.6614V149.153H28.1259Z" fill="white"/>
<path d="M28.1259 162.489V163.601H26.6614V165.268H25.6851V163.601H24.2207V162.489H25.6851V160.822H26.6614V162.489H28.1259Z" fill="white"/>
<path d="M28.1259 175.825V176.937H26.6614V178.604H25.6851V176.937H24.2207V175.825H25.6851V174.158H26.6614V175.825H28.1259Z" fill="white"/>
<path d="M28.1259 189.161V190.272H26.6614V191.939H25.6851V190.272H24.2207V189.161H25.6851V187.494H26.6614V189.161H28.1259Z" fill="white"/>
<path d="M28.1259 202.497V203.608H26.6614V205.275H25.6851V203.608H24.2207V202.497H25.6851V200.83H26.6614V202.497H28.1259Z" fill="white"/>
<path d="M28.1259 215.833V216.944H26.6614V218.611H25.6851V216.944H24.2207V215.833H25.6851V214.166H26.6614V215.833H28.1259Z" fill="white"/>
<path d="M28.1259 229.169V230.28H26.6614V231.947H25.6851V230.28H24.2207V229.169H25.6851V227.502H26.6614V229.169H28.1259Z" fill="white"/>
<path d="M28.1259 242.505V243.616H26.6614V245.283H25.6851V243.616H24.2207V242.505H25.6851V240.838H26.6614V242.505H28.1259Z" fill="white"/>
<path d="M28.1259 255.841V256.952H26.6614V258.619H25.6851V256.952H24.2207V255.841H25.6851V254.174H26.6614V255.841H28.1259Z" fill="white"/>
<path d="M16.4091 2.45801V3.56934H14.9446V5.23633H13.9683V3.56934H12.5039V2.45801H13.9683V0.791016H14.9446V2.45801H16.4091Z" fill="white"/>
<path d="M16.4091 15.7939V16.9053H14.9446V18.5723H13.9683V16.9053H12.5039V15.7939H13.9683V14.127H14.9446V15.7939H16.4091Z" fill="white"/>
<path d="M16.4091 29.1299V30.2412H14.9446V31.9082H13.9683V30.2412H12.5039V29.1299H13.9683V27.4629H14.9446V29.1299H16.4091Z" fill="white"/>
<path d="M16.4091 42.4658V43.5771H14.9446V45.2441H13.9683V43.5771H12.5039V42.4658H13.9683V40.7988H14.9446V42.4658H16.4091Z" fill="white"/>
<path d="M16.4091 55.8018V56.9131H14.9446V58.5801H13.9683V56.9131H12.5039V55.8018H13.9683V54.1348H14.9446V55.8018H16.4091Z" fill="white"/>
<path d="M16.4091 69.1377V70.249H14.9446V71.916H13.9683V70.249H12.5039V69.1377H13.9683V67.4707H14.9446V69.1377H16.4091Z" fill="white"/>
<path d="M16.4091 82.4736V83.585H14.9446V85.2519H13.9683V83.585H12.5039V82.4736H13.9683V80.8066H14.9446V82.4736H16.4091Z" fill="white"/>
<path d="M16.4091 95.8096V96.9209H14.9446V98.5879H13.9683V96.9209H12.5039V95.8096H13.9683V94.1426H14.9446V95.8096H16.4091Z" fill="white"/>
<path d="M16.4091 109.146V110.257H14.9446V111.924H13.9683V110.257H12.5039V109.146H13.9683V107.479H14.9446V109.146H16.4091Z" fill="white"/>
<path d="M16.4091 122.481V123.593H14.9446V125.26H13.9683V123.593H12.5039V122.481H13.9683V120.814H14.9446V122.481H16.4091Z" fill="white"/>
<path d="M16.4091 135.817V136.929H14.9446V138.596H13.9683V136.929H12.5039V135.817H13.9683V134.15H14.9446V135.817H16.4091Z" fill="white"/>
<path d="M16.4091 149.153V150.265H14.9446V151.932H13.9683V150.265H12.5039V149.153H13.9683V147.486H14.9446V149.153H16.4091Z" fill="white"/>
<path d="M16.4091 162.489V163.601H14.9446V165.268H13.9683V163.601H12.5039V162.489H13.9683V160.822H14.9446V162.489H16.4091Z" fill="white"/>
<path d="M16.4091 175.825V176.937H14.9446V178.604H13.9683V176.937H12.5039V175.825H13.9683V174.158H14.9446V175.825H16.4091Z" fill="white"/>
<path d="M16.4091 189.161V190.272H14.9446V191.939H13.9683V190.272H12.5039V189.161H13.9683V187.494H14.9446V189.161H16.4091Z" fill="white"/>
<path d="M16.4091 202.497V203.608H14.9446V205.275H13.9683V203.608H12.5039V202.497H13.9683V200.83H14.9446V202.497H16.4091Z" fill="white"/>
<path d="M16.4091 215.832V216.943H14.9446V218.61H13.9683V216.943H12.5039V215.832H13.9683V214.165H14.9446V215.832H16.4091Z" fill="white"/>
<path d="M16.4091 229.169V230.28H14.9446V231.947H13.9683V230.28H12.5039V229.169H13.9683V227.502H14.9446V229.169H16.4091Z" fill="white"/>
<path d="M16.4091 242.505V243.616H14.9446V245.283H13.9683V243.616H12.5039V242.505H13.9683V240.838H14.9446V242.505H16.4091Z" fill="white"/>
<path d="M16.4091 255.841V256.952H14.9446V258.619H13.9683V256.952H12.5039V255.841H13.9683V254.174H14.9446V255.841H16.4091Z" fill="white"/>
<path d="M4.69424 2.45801V3.56934H3.2298V5.23633H2.25351V3.56934H0.789062V2.45801H2.25351V0.791016H3.2298V2.45801H4.69424Z" fill="white"/>
<path d="M4.69424 15.7939V16.9053H3.2298V18.5723H2.25351V16.9053H0.789062V15.7939H2.25351V14.127H3.2298V15.7939H4.69424Z" fill="white"/>
<path d="M4.69424 29.1299V30.2412H3.2298V31.9082H2.25351V30.2412H0.789062V29.1299H2.25351V27.4629H3.2298V29.1299H4.69424Z" fill="white"/>
<path d="M4.69424 42.4658V43.5771H3.2298V45.2441H2.25351V43.5771H0.789062V42.4658H2.25351V40.7988H3.2298V42.4658H4.69424Z" fill="white"/>
<path d="M4.69424 55.8018V56.9131H3.2298V58.5801H2.25351V56.9131H0.789062V55.8018H2.25351V54.1348H3.2298V55.8018H4.69424Z" fill="white"/>
<path d="M4.69424 69.1377V70.249H3.2298V71.916H2.25351V70.249H0.789062V69.1377H2.25351V67.4707H3.2298V69.1377H4.69424Z" fill="white"/>
<path d="M4.69424 82.4736V83.585H3.2298V85.2519H2.25351V83.585H0.789062V82.4736H2.25351V80.8066H3.2298V82.4736H4.69424Z" fill="white"/>
<path d="M4.69424 95.8096V96.9209H3.2298V98.5879H2.25351V96.9209H0.789062V95.8096H2.25351V94.1426H3.2298V95.8096H4.69424Z" fill="white"/>
<path d="M4.69424 109.146V110.257H3.2298V111.924H2.25351V110.257H0.789062V109.146H2.25351V107.479H3.2298V109.146H4.69424Z" fill="white"/>
<path d="M4.69424 122.481V123.593H3.2298V125.26H2.25351V123.593H0.789062V122.481H2.25351V120.814H3.2298V122.481H4.69424Z" fill="white"/>
<path d="M4.69424 135.817V136.929H3.2298V138.596H2.25351V136.929H0.789062V135.817H2.25351V134.15H3.2298V135.817H4.69424Z" fill="white"/>
<path d="M4.69424 149.153V150.265H3.2298V151.932H2.25351V150.265H0.789062V149.153H2.25351V147.486H3.2298V149.153H4.69424Z" fill="white"/>
<path d="M4.69424 162.489V163.601H3.2298V165.268H2.25351V163.601H0.789062V162.489H2.25351V160.822H3.2298V162.489H4.69424Z" fill="white"/>
<path d="M4.69424 175.825V176.937H3.2298V178.604H2.25351V176.937H0.789062V175.825H2.25351V174.158H3.2298V175.825H4.69424Z" fill="white"/>
<path d="M4.69424 189.161V190.272H3.2298V191.939H2.25351V190.272H0.789062V189.161H2.25351V187.494H3.2298V189.161H4.69424Z" fill="white"/>
<path d="M4.69424 202.497V203.608H3.2298V205.275H2.25351V203.608H0.789062V202.497H2.25351V200.83H3.2298V202.497H4.69424Z" fill="white"/>
<path d="M4.69424 215.833V216.944H3.2298V218.611H2.25351V216.944H0.789062V215.833H2.25351V214.166H3.2298V215.833H4.69424Z" fill="white"/>
<path d="M4.69424 229.169V230.28H3.2298V231.947H2.25351V230.28H0.789062V229.169H2.25351V227.502H3.2298V229.169H4.69424Z" fill="white"/>
<path d="M4.69424 242.505V243.616H3.2298V245.283H2.25351V243.616H0.789062V242.505H2.25351V240.838H3.2298V242.505H4.69424Z" fill="white"/>
<path d="M4.69424 255.841V256.952H3.2298V258.619H2.25351V256.952H0.789062V255.841H2.25351V254.174H3.2298V255.841H4.69424Z" fill="white"/>
</g>
</svg>
