<svg width="21" height="15" viewBox="0 0 21 15" fill="none" xmlns="http://www.w3.org/2000/svg">
<path d="M11.2879 14.3747L7.22568 14.2988C5.91044 14.2723 4.59191 14.3251 3.30246 14.051C1.34089 13.6415 1.20193 11.6336 1.05652 9.94939C0.856153 7.58155 0.933719 5.17074 1.31183 2.82266C1.52528 1.50514 2.36532 0.718973 3.6644 0.633423C8.04975 0.322948 12.4643 0.359743 16.8399 0.50459C17.302 0.517869 17.7673 0.590445 18.223 0.673056C20.4723 1.07597 20.5271 3.35137 20.673 5.26683C20.8184 7.20205 20.757 9.14721 20.479 11.0693C20.2561 12.6607 19.8295 13.9952 18.0291 14.124C15.7733 14.2925 13.5693 14.4281 11.3072 14.3849C11.3073 14.3747 11.2943 14.3747 11.2879 14.3747ZM8.8997 10.3457C10.5996 9.34831 12.2671 8.36752 13.9573 7.3768C12.2542 6.37939 10.5899 5.3986 8.8997 4.40788V10.3457Z" fill="#00A346"/>
</svg>
