<svg width="18" height="19" viewBox="0 0 18 19" fill="none" xmlns="http://www.w3.org/2000/svg">
<mask id="mask0_1_2020" style="mask-type:luminance" maskUnits="userSpaceOnUse" x="0" y="0" width="18" height="19">
<rect y="0.136719" width="18" height="18" fill="white"/>
</mask>
<g mask="url(#mask0_1_2020)">
<path d="M11.2071 3.17961L10.5 3.88672L10.5 3.88672L11.2071 3.17961ZM9.79289 3.17961L9.08579 2.47251V2.47251L9.79289 3.17961ZM16.4571 8.42961L15.75 9.13672V9.13672L16.4571 8.42961ZM16.4571 9.84383L15.75 9.13672L15.75 9.13672L16.4571 9.84383ZM15.0429 9.84383L15.75 9.13672L15.75 9.13672L15.0429 9.84383ZM9.79289 4.59383L10.5 3.88672V3.88672L9.79289 4.59383ZM16.4571 9.84383L15.75 9.13672L16.4571 9.84383ZM16.4571 8.42961L15.75 9.13672L15.75 9.13672L16.4571 8.42961ZM11.2071 15.0938L10.5 14.3867L10.5 14.3867L11.2071 15.0938ZM9.79289 15.0938L10.5 14.3867L9.79289 15.0938ZM9.79289 13.6796L10.5 14.3867V14.3867L9.79289 13.6796ZM15.0429 8.42961L15.75 9.13672V9.13672L15.0429 8.42961ZM2.25 8.13672L2.25 7.13672H2.25V8.13672ZM1.25 9.13672H0.25H1.25ZM15.75 8.13672V9.13672V8.13672ZM15.75 10.1367V11.1367V10.1367ZM2.25 10.1367L2.25 9.13672H2.25V10.1367ZM11.9142 2.47251C11.1332 1.69146 9.86684 1.69146 9.08579 2.47251L10.5 3.88672L10.5 3.88672L11.9142 2.47251ZM17.1642 7.72251L11.9142 2.47251L10.5 3.88672L15.75 9.13672L17.1642 7.72251ZM17.1642 10.5509C17.9453 9.76989 17.9453 8.50355 17.1642 7.72251L15.75 9.13672L15.75 9.13672L17.1642 10.5509ZM14.3358 10.5509C15.1168 11.332 16.3832 11.332 17.1642 10.5509L15.75 9.13672H15.75L14.3358 10.5509ZM9.08579 5.30093L14.3358 10.5509L15.75 9.13672L10.5 3.88672L9.08579 5.30093ZM9.08579 2.47251C8.30474 3.25355 8.30474 4.51988 9.08579 5.30093L10.5 3.88672V3.88672L9.08579 2.47251ZM17.1642 10.5509C17.9453 9.76988 17.9453 8.50355 17.1642 7.72251L15.75 9.13672V9.13672L17.1642 10.5509ZM11.9142 15.8009L17.1642 10.5509L15.75 9.13672L10.5 14.3867L11.9142 15.8009ZM9.08578 15.8009C9.86683 16.582 11.1332 16.582 11.9142 15.8009L10.5 14.3867L10.5 14.3867L9.08578 15.8009ZM9.08579 12.9725C8.30474 13.7536 8.30474 15.0199 9.08579 15.8009L10.5 14.3867V14.3867L9.08579 12.9725ZM14.3358 7.72251L9.08579 12.9725L10.5 14.3867L15.75 9.13672L14.3358 7.72251ZM17.1642 7.72251C16.3832 6.94146 15.1168 6.94146 14.3358 7.72251L15.75 9.13672L15.75 9.13672L17.1642 7.72251ZM2.25 7.13672C1.14543 7.13672 0.25 8.03215 0.25 9.13672H2.25V7.13672ZM15.75 7.13672L2.25 7.13672L2.25 9.13672L15.75 9.13672V7.13672ZM17.75 9.13672C17.75 8.03215 16.8546 7.13672 15.75 7.13672V9.13672H17.75ZM15.75 11.1367C16.8546 11.1367 17.75 10.2413 17.75 9.13672H15.75V11.1367ZM2.25 11.1367L15.75 11.1367V9.13672L2.25 9.13672L2.25 11.1367ZM0.25 9.13672C0.25 10.2413 1.14543 11.1367 2.25 11.1367V9.13672H0.25Z" fill="#00A346"/>
</g>
</svg>
