<svg width="14" height="13" viewBox="0 0 14 13" fill="none" xmlns="http://www.w3.org/2000/svg">
<path d="M12.3797 4.23335L8.62634 3.8926L7.143 0.419814C7.03348 0.164672 6.78429 0 6.50693 0C6.22957 0 5.98028 0.164672 5.87146 0.419814L4.38812 3.8926L0.634199 4.23335C0.359019 4.25875 0.125998 4.44515 0.0398928 4.70793C-0.0457167 4.9712 0.0333456 5.25997 0.241467 5.4425L3.07868 7.93034L2.24213 11.6148C2.18092 11.8857 2.28608 12.1659 2.51086 12.3284C2.63169 12.4162 2.77364 12.46 2.91609 12.46C3.03851 12.46 3.16102 12.4275 3.27044 12.362L6.50693 10.4268L9.74283 12.362C9.98022 12.5038 10.2787 12.4909 10.503 12.3284C10.7278 12.1659 10.8329 11.8857 10.7717 11.6148L9.93518 7.93034L12.7724 5.4425C12.9804 5.25997 13.0596 4.9718 12.974 4.70793C12.8884 4.44465 12.6548 4.25825 12.3797 4.23335Z" fill="#FFC947"/>
</svg>
