<svg width="20" height="20" viewBox="0 0 20 20" fill="none" xmlns="http://www.w3.org/2000/svg">
<path d="M18.3333 5.94971V14.283C18.3333 14.8356 18.1138 15.3655 17.7231 15.7562C17.3324 16.1469 16.8025 16.3664 16.25 16.3664H3.74996C3.19743 16.3664 2.66752 16.1469 2.27682 15.7562C1.88612 15.3655 1.66663 14.8356 1.66663 14.283V5.94971" stroke="#00A346" stroke-width="1.4" stroke-linecap="round" stroke-linejoin="round"/>
<path d="M18.3333 5.94954C18.3333 5.39701 18.1138 4.86711 17.7231 4.47641C17.3324 4.0857 16.8025 3.86621 16.25 3.86621H3.74996C3.19743 3.86621 2.66752 4.0857 2.27682 4.47641C1.88612 4.86711 1.66663 5.39701 1.66663 5.94954L8.89579 10.4634C9.2269 10.6704 9.6095 10.7801 9.99996 10.7801C10.3904 10.7801 10.773 10.6704 11.1041 10.4634L18.3333 5.94954Z" stroke="#00A346" stroke-width="1.4" stroke-linecap="round" stroke-linejoin="round"/>
</svg>
