<svg width="19" height="19" viewBox="0 0 19 19" fill="none" xmlns="http://www.w3.org/2000/svg">
<path fill-rule="evenodd" clip-rule="evenodd" d="M0.849609 9.39502C0.849609 5.79988 0.849609 4.00231 1.7063 2.70757C2.08886 2.12941 2.584 1.63427 3.16216 1.25171C4.4569 0.39502 6.25447 0.39502 9.84961 0.39502C13.4447 0.39502 15.2423 0.39502 16.5371 1.25171C17.1152 1.63427 17.6104 2.12941 17.9929 2.70757C18.8496 4.00231 18.8496 5.79988 18.8496 9.39502C18.8496 12.9902 18.8496 14.7877 17.9929 16.0825C17.6104 16.6606 17.1152 17.1558 16.5371 17.5383C15.2423 18.395 13.4447 18.395 9.84961 18.395C6.25447 18.395 4.4569 18.395 3.16216 17.5383C2.584 17.1558 2.08886 16.6606 1.7063 16.0825C0.849609 14.7877 0.849609 12.9902 0.849609 9.39502ZM14.5082 9.39555C14.5082 11.9689 12.4222 14.055 9.84883 14.055C7.27551 14.055 5.18943 11.9689 5.18943 9.39555C5.18943 6.82223 7.27551 4.73614 9.84883 4.73614C12.4222 4.73614 14.5082 6.82223 14.5082 9.39555ZM9.84883 12.4786C11.5515 12.4786 12.9318 11.0982 12.9318 9.39555C12.9318 7.69286 11.5515 6.31255 9.84883 6.31255C8.14614 6.31255 6.76583 7.69286 6.76583 9.39555C6.76583 11.0982 8.14614 12.4786 9.84883 12.4786ZM14.6923 5.59687C15.2969 5.59687 15.7871 5.1067 15.7871 4.50205C15.7871 3.8974 15.2969 3.40723 14.6923 3.40723C14.0876 3.40723 13.5974 3.8974 13.5974 4.50205C13.5974 5.1067 14.0876 5.59687 14.6923 5.59687Z" fill="#00A346"/>
</svg>
