<svg width="20" height="20" viewBox="0 0 20 20" fill="none" xmlns="http://www.w3.org/2000/svg">
<path d="M9.52665 16.6405L10 17.0751L10.4734 16.6405C12.1916 15.0632 13.4953 13.6042 14.3592 12.2641C15.2155 10.9364 15.7 9.67436 15.7 8.49984C15.7 6.82241 15.1584 5.39738 14.0467 4.2857C12.9464 3.18538 11.5827 2.63317 10 2.63317C8.41741 2.63317 7.05353 3.18537 5.95271 4.28555L5.95242 4.28584C4.84135 5.39755 4.30004 6.82253 4.30004 8.49984C4.30004 9.67436 4.78458 10.9364 5.64087 12.2641C6.50479 13.6042 7.80852 15.0632 9.52665 16.6405ZM9.31877 9.01528L9.31793 9.01444C9.12174 8.81859 9.03337 8.60417 9.03337 8.33317C9.03337 8.06214 9.12178 7.84721 9.31835 7.65065C9.51411 7.45489 9.72866 7.3665 10 7.3665C10.2712 7.3665 10.4861 7.45477 10.6825 7.65056C10.8784 7.84694 10.9667 8.06191 10.9667 8.33317C10.9667 8.60455 10.8783 8.81911 10.6826 9.01486C10.486 9.21143 10.2711 9.29984 10 9.29984C9.72904 9.29984 9.51462 9.21147 9.31877 9.01528ZM5.56988 12.6385L5.56973 12.6383C4.51218 11.0759 4.03337 9.70159 4.03337 8.49984C4.03337 6.58133 4.64299 5.11942 5.81873 4.03529L5.81884 4.03519C7.03434 2.91392 8.41845 2.3665 10 2.3665C11.5816 2.3665 12.9657 2.91392 14.1812 4.03519L14.1814 4.03529C15.3571 5.11942 15.9667 6.58133 15.9667 8.49984C15.9667 9.70168 15.4881 11.0761 14.4311 12.6384C13.4486 14.0905 11.9786 15.681 10 17.409C8.02154 15.681 6.55188 14.0905 5.56988 12.6385Z" fill="#031A45" stroke="#00A346" stroke-width="1.4"/>
</svg>
