<svg width="28" height="27" viewBox="0 0 28 27" fill="none" xmlns="http://www.w3.org/2000/svg">
<g filter="url(#filter0_d_231_4373)">
<path d="M16.2515 17.3851L16.2606 17.3915C17.0477 17.8926 17.9822 18.1102 18.9096 18.0084C19.8371 17.9065 20.702 17.4913 21.3616 16.8313L21.9345 16.2584C22.0615 16.1315 22.1622 15.9808 22.2309 15.815C22.2996 15.6492 22.335 15.4714 22.335 15.2919C22.335 15.1124 22.2996 14.9347 22.2309 14.7688C22.1622 14.603 22.0615 14.4524 21.9345 14.3255L19.518 11.9107C19.3911 11.7838 19.2404 11.683 19.0746 11.6143C18.9088 11.5456 18.731 11.5102 18.5515 11.5102C18.372 11.5102 18.1943 11.5456 18.0284 11.6143C17.8626 11.683 17.712 11.7838 17.5851 11.9107C17.3288 12.1669 16.9814 12.3108 16.6191 12.3108C16.2568 12.3108 15.9093 12.1669 15.6531 11.9107L11.7891 8.04586C11.533 7.78963 11.3891 7.44217 11.3891 7.07987C11.3891 6.71757 11.533 6.3701 11.7891 6.11388C11.9161 5.987 12.0168 5.83633 12.0855 5.67051C12.1543 5.50468 12.1896 5.32694 12.1896 5.14744C12.1896 4.96794 12.1543 4.79019 12.0855 4.62437C12.0168 4.45854 11.9161 4.30788 11.7891 4.18099L9.37348 1.76625C9.11726 1.51011 8.76979 1.36621 8.40749 1.36621C8.04519 1.36621 7.69773 1.51011 7.44151 1.76625L6.86765 2.33919C6.2078 2.99883 5.79274 3.86385 5.69105 4.79131C5.58936 5.71878 5.80713 6.65318 6.30837 7.44012L6.31384 7.44923C8.96102 11.3658 12.3345 14.7386 16.2515 17.3851V17.3851Z" stroke="#00A346" stroke-width="1.4" stroke-linecap="round" stroke-linejoin="round"/>
</g>
<defs>
<filter id="filter0_d_231_4373" x="0" y="0" width="28" height="28" filterUnits="userSpaceOnUse" color-interpolation-filters="sRGB">
<feFlood flood-opacity="0" result="BackgroundImageFix"/>
<feColorMatrix in="SourceAlpha" type="matrix" values="0 0 0 0 0 0 0 0 0 0 0 0 0 0 0 0 0 0 127 0" result="hardAlpha"/>
<feOffset dy="4"/>
<feGaussianBlur stdDeviation="2"/>
<feComposite in2="hardAlpha" operator="out"/>
<feColorMatrix type="matrix" values="0 0 0 0 0 0 0 0 0 0 0 0 0 0 0 0 0 0 0.25 0"/>
<feBlend mode="normal" in2="BackgroundImageFix" result="effect1_dropShadow_231_4373"/>
<feBlend mode="normal" in="SourceGraphic" in2="effect1_dropShadow_231_4373" result="shape"/>
</filter>
</defs>
</svg>
