<svg width="14" height="13" viewBox="0 0 14 13" fill="none" xmlns="http://www.w3.org/2000/svg">
<path opacity="0.3" d="M12.3816 4.23335L8.62829 3.8926L7.14495 0.419814C7.03544 0.164672 6.78625 0 6.50888 0C6.23152 0 5.98223 0.164672 5.87341 0.419814L4.39007 3.8926L0.636152 4.23335C0.360972 4.25875 0.127951 4.44515 0.0418459 4.70793C-0.0437636 4.9712 0.0352987 5.25997 0.24342 5.4425L3.08064 7.93034L2.24408 11.6148C2.18288 11.8857 2.28803 12.1659 2.51282 12.3284C2.63364 12.4162 2.7756 12.46 2.91805 12.46C3.04046 12.46 3.16297 12.4275 3.27239 12.362L6.50888 10.4268L9.74478 12.362C9.98217 12.5038 10.2807 12.4909 10.505 12.3284C10.7297 12.1659 10.8349 11.8857 10.7737 11.6148L9.93713 7.93034L12.7743 5.4425C12.9824 5.25997 13.0615 4.9718 12.9759 4.70793C12.8903 4.44465 12.6568 4.25825 12.3816 4.23335Z" fill="#5B7486"/>
</svg>
