<svg width="19" height="15" viewBox="0 0 19 15" fill="none" xmlns="http://www.w3.org/2000/svg">
<path d="M12.8766 0.0965034V0.0932617H13.7206L14.029 0.154854C14.2346 0.19484 14.4213 0.247242 14.589 0.312075C14.7567 0.376909 14.919 0.452554 15.0759 0.538993C15.2328 0.625432 15.3751 0.713509 15.5028 0.80319C15.6294 0.891801 15.743 0.98581 15.8436 1.08522C15.9432 1.18571 16.0985 1.21164 16.3095 1.16302C16.5205 1.11439 16.7477 1.04685 16.9911 0.960412C17.2346 0.873972 17.4754 0.776722 17.7134 0.66866C17.9515 0.560599 18.0965 0.491989 18.1484 0.462813C18.1993 0.432569 18.2263 0.41636 18.2296 0.414188L18.2328 0.409326L18.249 0.401221L18.2653 0.393117L18.2815 0.385013L18.2977 0.376909L18.301 0.372046L18.3058 0.368805L18.3107 0.365563L18.314 0.3607L18.3302 0.355838L18.3464 0.352596L18.3432 0.376909L18.3383 0.401221L18.3302 0.425534L18.3221 0.449847L18.314 0.466055L18.3058 0.482264L18.2977 0.506576C18.2923 0.522785 18.2869 0.54439 18.2815 0.57141C18.2761 0.598429 18.2247 0.706474 18.1273 0.895578C18.0299 1.08468 17.9082 1.27648 17.7621 1.47098C17.616 1.66548 17.4851 1.81242 17.3693 1.91185C17.2525 2.01234 17.1751 2.08257 17.1372 2.12255C17.0994 2.16361 17.0534 2.20142 16.9993 2.23601L16.9181 2.2895L16.9019 2.29761L16.8856 2.30571L16.8824 2.31057L16.8775 2.31381L16.8727 2.31706L16.8694 2.32192L16.8532 2.33002L16.837 2.33813L16.8337 2.34299L16.8288 2.34623L16.824 2.34947L16.8207 2.35433L16.8175 2.3592L16.8126 2.36244L16.8077 2.36568L16.8045 2.37054H16.8856L17.3401 2.27329C17.6431 2.20846 17.9325 2.13012 18.2085 2.03827L18.6467 1.8924L18.6954 1.87619L18.7197 1.86808L18.736 1.85998L18.7522 1.85187L18.7684 1.84377L18.7847 1.83567L18.8171 1.8308L18.8496 1.82756V1.85998L18.8415 1.86322L18.8333 1.86808L18.8301 1.87294L18.8252 1.87619L18.8204 1.87943L18.8171 1.88429L18.8139 1.88915L18.809 1.8924L18.8041 1.89564L18.8009 1.9005L18.7977 1.90536L18.7928 1.9086L18.7847 1.92481L18.7765 1.94102L18.7717 1.94426C18.7695 1.9475 18.7008 2.03934 18.5655 2.2198C18.4303 2.40134 18.3572 2.49318 18.3464 2.49535C18.3356 2.49859 18.3205 2.5148 18.301 2.54397C18.2826 2.57422 18.1679 2.69471 17.9569 2.90542C17.7459 3.11613 17.5392 3.3036 17.3369 3.46785C17.1335 3.63318 17.0307 3.83632 17.0285 4.07729C17.0252 4.31717 17.0128 4.5884 16.9911 4.89095C16.9695 5.19351 16.9289 5.52037 16.8694 5.87156C16.8099 6.22275 16.7179 6.61985 16.5935 7.06288C16.4691 7.5059 16.3176 7.93813 16.139 8.35955C15.9605 8.78097 15.7738 9.15916 15.5791 9.49414C15.3843 9.82912 15.2058 10.1128 15.0434 10.3451C14.8811 10.5774 14.7161 10.7962 14.5484 11.0015C14.3807 11.2068 14.1686 11.4381 13.9122 11.6952C13.6546 11.9513 13.514 12.0918 13.4902 12.1167C13.4653 12.1404 13.3593 12.229 13.172 12.3825C12.9859 12.537 12.7857 12.6915 12.5715 12.846C12.3583 12.9995 12.1625 13.1275 11.9839 13.2302C11.8054 13.3328 11.5901 13.4501 11.3379 13.5819C11.0869 13.7148 10.8153 13.838 10.5232 13.9515C10.231 14.0649 9.92262 14.1703 9.598 14.2675C9.27338 14.3648 8.95959 14.4404 8.65661 14.4944C8.35365 14.5485 8.01009 14.5944 7.62595 14.6322L7.04976 14.6889V14.697H5.99475V14.6889L5.85679 14.6808C5.76483 14.6754 5.68908 14.67 5.62956 14.6646C5.57006 14.6592 5.34552 14.6295 4.95598 14.5755C4.56644 14.5215 4.26077 14.4674 4.03894 14.4134C3.81713 14.3594 3.48709 14.2567 3.04886 14.1054C2.61062 13.9542 2.23569 13.8012 1.92406 13.6467C1.61352 13.4933 1.41875 13.396 1.33975 13.355C1.26184 13.315 1.1742 13.2653 1.07681 13.2059L0.930733 13.1167L0.927503 13.1119L0.922618 13.1086L0.917748 13.1054L0.914502 13.1005L0.898271 13.0924L0.882041 13.0843L0.878811 13.0794L0.873925 13.0762L0.869056 13.073L0.86581 13.0681L0.86258 13.0632L0.857694 13.06H0.849579V13.0276L0.86581 13.0308L0.882041 13.0357L0.955079 13.0438C1.00377 13.0492 1.13633 13.0573 1.35273 13.0681C1.56916 13.0789 1.79908 13.0789 2.04255 13.0681C2.28601 13.0573 2.53489 13.033 2.78916 12.9952C3.04345 12.9573 3.34372 12.8925 3.68998 12.8007C4.03624 12.7088 4.35437 12.5997 4.64437 12.4732C4.93327 12.3457 5.13885 12.2507 5.26114 12.188C5.38232 12.1264 5.56735 12.0118 5.81622 11.8444L6.18952 11.5931L6.19277 11.5883L6.19764 11.585L6.20253 11.5818L6.20576 11.5769L6.209 11.5721L6.21387 11.5688L6.21876 11.5656L6.22199 11.5607L6.23822 11.5558L6.25445 11.5526L6.25769 11.5364L6.26256 11.5202L6.26745 11.5169L6.27068 11.5121L6.14083 11.504C6.05427 11.4986 5.97041 11.4932 5.88925 11.4878C5.8081 11.4824 5.68096 11.4581 5.50783 11.4148C5.33471 11.3716 5.14806 11.3068 4.94787 11.2203C4.74769 11.1339 4.55292 11.0312 4.36356 10.9124C4.17421 10.7935 4.03732 10.6946 3.95292 10.6158C3.8696 10.5379 3.76139 10.4277 3.6283 10.2851C3.49629 10.1414 3.38159 9.99389 3.2842 9.84262C3.18682 9.69135 3.09377 9.51681 3.00505 9.31909L2.87032 9.02409L2.8622 8.99978L2.85409 8.97547L2.84922 8.95926L2.84597 8.94305L2.87032 8.94629L2.89466 8.95116L3.0732 8.97547C3.19224 8.99168 3.3789 8.99708 3.63317 8.99168C3.88746 8.98628 4.06328 8.97547 4.16067 8.95926C4.25805 8.94305 4.31757 8.93224 4.33921 8.92684L4.37167 8.91874L4.41225 8.91064L4.45283 8.90253L4.45607 8.89767L4.46094 8.89443L4.46583 8.89119L4.46906 8.88632L4.43659 8.87822L4.40413 8.87012L4.37167 8.86201L4.33921 8.85391L4.30675 8.8458C4.28511 8.8404 4.24725 8.82959 4.19313 8.81339C4.13903 8.79718 3.99296 8.73774 3.7549 8.63509C3.51686 8.53244 3.32749 8.43249 3.18682 8.33524C3.0458 8.23771 2.91133 8.13104 2.78429 8.01593C2.65769 7.89923 2.51866 7.74903 2.36716 7.56534C2.21568 7.38165 2.08043 7.16823 1.96139 6.92511C1.84237 6.68198 1.7531 6.44966 1.69358 6.22814C1.6343 6.00793 1.59519 5.78278 1.57674 5.5555L1.5475 5.21512L1.56374 5.21836L1.57997 5.22322L1.5962 5.23133L1.61243 5.23943L1.62866 5.24754L1.64489 5.25564L1.89647 5.3691C2.0642 5.44474 2.27249 5.50958 2.52136 5.5636C2.77024 5.61762 2.91901 5.64735 2.9677 5.65275L3.04074 5.66085H3.18682L3.18359 5.65599L3.1787 5.65275L3.17383 5.6495L3.17059 5.64464L3.16736 5.63978L3.16247 5.63654L3.1576 5.6333L3.15436 5.62843L3.13813 5.62033L3.1219 5.61222L3.11867 5.60736L3.11378 5.60412L3.10891 5.60088L3.10567 5.59602L3.08943 5.58791L3.0732 5.57981L3.06997 5.57495C3.06673 5.57277 3.02019 5.5382 2.93037 5.47121C2.84164 5.40314 2.74859 5.31508 2.6512 5.20701C2.55382 5.09895 2.45643 4.98549 2.35905 4.86664C2.26148 4.74751 2.17458 4.62005 2.09935 4.48574C2.02362 4.35068 1.94354 4.17885 1.85914 3.97031C1.77582 3.76285 1.71252 3.55376 1.66924 3.34305C1.62596 3.13234 1.60162 2.92434 1.5962 2.71902C1.59079 2.51371 1.5962 2.33813 1.61243 2.19225C1.62866 2.04637 1.66112 1.88158 1.70981 1.69789C1.75851 1.5142 1.82885 1.3197 1.92081 1.11439L2.05878 0.806432L2.06689 0.782119L2.07501 0.757806L2.07989 0.754565L2.08312 0.749702L2.08637 0.74484L2.09124 0.741598L2.09612 0.74484L2.09935 0.749702L2.1026 0.754565L2.10747 0.757806L2.11235 0.761048L2.11558 0.765911L2.11883 0.770773L2.1237 0.774015L2.13182 0.790223L2.13993 0.806432L2.14482 0.809673L2.14805 0.814536L2.36716 1.05766C2.51324 1.21975 2.68637 1.40075 2.88655 1.60064C3.08674 1.80054 3.19765 1.90428 3.21928 1.91185C3.24093 1.92048 3.26797 1.94533 3.30044 1.9864C3.3329 2.02639 3.44111 2.12202 3.62505 2.27329C3.80901 2.42457 4.04976 2.60017 4.34732 2.80007C4.6449 2.99996 4.97492 3.19717 5.33741 3.39167C5.69991 3.58617 6.08945 3.76176 6.50603 3.91845C6.92262 4.07513 7.21478 4.17778 7.38249 4.22641C7.55022 4.27503 7.83695 4.33716 8.24273 4.4128C8.6485 4.48845 8.95419 4.53707 9.15977 4.55868C9.36536 4.58028 9.50604 4.59272 9.58177 4.59596L9.69539 4.5992L9.69216 4.57489L9.68727 4.55057L9.65481 4.34797C9.63317 4.2129 9.62235 4.0238 9.62235 3.78067C9.62235 3.53755 9.64129 3.31334 9.67916 3.10803C9.71704 2.90271 9.77385 2.69471 9.84958 2.484C9.92533 2.27329 9.99945 2.10417 10.0719 1.97668C10.1455 1.85025 10.2418 1.706 10.3609 1.54391C10.4799 1.38183 10.6341 1.21435 10.8234 1.04145C11.0128 0.868559 11.2292 0.714579 11.4727 0.579514C11.7161 0.444449 11.9407 0.341785 12.1462 0.271554C12.3518 0.201323 12.525 0.155389 12.6656 0.133783C12.8063 0.112177 12.8766 0.0997451 12.8766 0.0965034Z" fill="#00A346"/>
</svg>
